<svg width="725" height="817" viewBox="0 0 725 817" fill="none" xmlns="http://www.w3.org/2000/svg">
<g clip-path="url(#clip0_13_51)">
<path d="M277.964 500.366C282.084 508.341 281.309 516.931 276.234 519.553C271.158 522.174 263.704 517.835 259.584 509.86C257.781 506.369 256.915 502.76 256.938 499.585L239.904 465.574L256.036 457.921L271.116 492.262C273.718 494.081 276.16 496.875 277.964 500.366Z" fill="#FFB6B6"/>
<path d="M151.204 807.245L165.727 807.244L172.636 751.229L151.201 751.23L151.204 807.245Z" fill="#FFB6B6"/>
<path d="M200.962 806.916C201.414 807.677 201.653 810.135 201.653 811.021C201.653 813.743 199.446 815.95 196.723 815.95H151.747C149.89 815.95 148.384 814.444 148.384 812.587V810.715C148.384 810.715 146.159 805.087 150.74 798.151C150.74 798.151 156.433 803.582 164.941 795.075L167.449 790.531L185.609 803.811L195.675 805.05C197.877 805.321 199.829 805.008 200.962 806.916Z" fill="#2F2E41"/>
<path d="M83.0696 807.245L97.5927 807.244L104.501 751.229L83.0667 751.23L83.0696 807.245Z" fill="#FFB6B6"/>
<path d="M132.828 806.916C133.28 807.677 133.518 810.135 133.518 811.021C133.518 813.743 131.312 815.95 128.589 815.95H83.6128C81.7557 815.95 80.2501 814.444 80.2501 812.587V810.715C80.2501 810.715 78.0252 805.087 82.606 798.151C82.606 798.151 88.2993 803.582 96.8065 795.075L99.3152 790.531L117.475 803.811L127.54 805.05C129.742 805.321 131.695 805.008 132.828 806.916Z" fill="#2F2E41"/>
<path d="M62.5124 476.746L56.3942 514.133L75.4286 635.131L80.1873 781.279H105.886L118.936 643.288L117.576 552.2L148.167 782.639H174.872L177.399 493.74L62.5124 476.746Z" fill="#2F2E41"/>
<path d="M94.4631 283.015H142.574L184.197 307.486C177.719 305.84 172.714 365.937 172.544 419.039C172.533 422.568 169.036 426.625 169.068 430.071C169.096 433.041 172.647 435.413 172.709 438.294C172.767 440.987 172.839 443.634 172.928 446.227C173.001 448.38 168.973 451.232 169.068 453.303C169.19 455.949 173.44 457.786 173.598 460.276C174.569 475.584 176.241 487.711 178.759 493.741C178.759 493.741 71.3498 523.65 63.1922 477.426C63.1922 477.426 63.658 460.812 63.5926 437.869C63.5868 435.833 61.8531 433.986 61.8383 431.858C61.8272 430.276 63.5372 428.432 63.5205 426.805C63.5067 425.468 61.8562 424.286 61.8383 422.923C61.8276 422.111 63.4509 421.124 63.4386 420.303C62.7863 376.675 59.8568 321.692 49.5961 307.486L94.4631 283.015Z" fill="#FF8398"/>
<path d="M142.049 283.015C142.049 283.015 173.224 294.343 183.116 303.368C188.373 308.163 223.626 398.574 223.626 398.574L272.59 483.842L247.138 493.51L195.074 414.888L171.961 363.226L142.049 283.015Z" fill="#FF8398"/>
<path d="M77.3867 503.592C81.9336 511.332 81.6268 519.952 76.7013 522.845C71.7758 525.738 64.097 521.81 59.5501 514.07C57.5597 510.682 56.4996 507.126 56.3496 503.955L37.4944 470.918L53.1868 462.401L70.1088 495.872C72.8058 497.547 75.3963 500.205 77.3867 503.592Z" fill="#FFB6B6"/>
<path d="M87.6651 325.16L74.069 293.891C74.069 293.891 42.1183 304.087 42.1183 319.042C42.1183 319.042 23.0838 433.242 25.803 461.792L43.4779 493.061L68.6306 473.348L52.9951 437.32L87.6651 325.16Z" fill="#FF8398"/>
<path d="M59.7034 528.307L75.7409 496.46L94.4631 522.29L77.6131 538.605L59.7034 528.307Z" fill="#2F2E41"/>
<path d="M118.065 274.032C135.25 274.032 149.181 260.102 149.181 242.918C149.181 225.734 135.25 211.804 118.065 211.804C100.88 211.804 86.9495 225.734 86.9495 242.918C86.9495 260.102 100.88 274.032 118.065 274.032Z" fill="#FFB6B6"/>
<path d="M142.329 208.161C136.921 206.43 134.363 199.998 129.417 197.21C123.947 194.127 117.403 192.203 111.371 193.947C107.67 195.017 104.446 197.383 100.742 198.444C100.095 198.63 99.4137 198.758 98.7222 198.824C94.7391 199.203 91.3196 201.592 89.329 205.062L89.277 205.152C88.1085 207.152 86.4475 208.808 84.9733 210.594C79.5937 217.112 76.6821 225.584 76.7421 234.035C76.8064 243.12 80.3021 252.139 86.3768 258.894L87.9285 258.179C91.6786 261.418 95.4287 264.657 99.1788 267.896C97.138 260.533 95.0781 252.911 96.1586 245.347C97.239 237.783 102.326 230.236 109.827 228.776C112.664 228.223 115.657 228.557 118.411 227.68C121.166 226.803 123.703 223.972 122.758 221.24C124.463 225.749 130.825 225.482 135.203 227.499C145.003 232.014 141.416 225.037 149.923 231.674C152.796 215.75 163.803 215.039 142.329 208.161Z" fill="#2F2E41"/>
<path d="M0 814.873C0 816.053 0.947252 817 2.12684 817H722.873C724.053 817 725 816.053 725 814.873C725 813.694 724.053 812.747 722.873 812.747H2.12684C0.947252 812.747 0 813.694 0 814.873Z" fill="#CCCCCC"/>
<path d="M628.585 817H313.285C274.839 817 243.562 785.724 243.562 747.28V69.7191C243.562 31.276 274.839 0 313.285 0H628.585C667.03 0 698.308 31.276 698.308 69.7191V747.28C698.308 785.724 667.03 817 628.585 817Z" fill="#3F3D56"/>
<path d="M698.308 249.229C696.682 249.229 695.359 250.552 695.359 252.179V346.561C695.359 348.188 696.682 349.511 698.308 349.511C699.935 349.511 701.258 348.188 701.258 346.561V252.179C701.258 250.552 699.935 249.229 698.308 249.229Z" fill="#3F3D56"/>
<path d="M691.672 69.7196V747.269C691.672 780.73 665.627 808.101 632.694 810.225H632.679C632.192 810.254 631.706 810.284 631.204 810.299C630.334 810.343 629.464 810.357 628.579 810.357C628.579 810.357 625.335 810.121 619.406 809.679C613.418 809.237 604.702 808.573 593.832 807.703C590.573 807.452 587.137 807.172 583.509 806.877C576.282 806.287 568.348 805.638 559.838 804.901C556.446 804.621 552.936 804.311 549.352 804.001C531.035 802.423 510.52 800.58 488.884 798.486C485.227 798.147 481.54 797.793 477.823 797.424C476.85 797.321 475.862 797.232 474.874 797.129C459.447 795.61 250.199 755.173 250.199 747.269V69.7196C250.199 34.8718 278.442 6.63074 313.292 6.63074H350.958C356.976 6.63074 361.813 11.3204 362.329 17.3225C362.374 17.7207 362.418 18.1188 362.492 18.517C363.583 24.5487 369.113 28.7517 375.249 28.7517H566.622C572.757 28.7517 578.288 24.5487 579.379 18.517C579.453 18.1188 579.497 17.7207 579.542 17.3225C580.058 11.3204 584.895 6.63074 590.912 6.63074H628.579C663.429 6.63074 691.672 34.8718 691.672 69.7196Z" fill="white"/>
<path d="M242.087 178.442C240.46 178.442 239.137 179.765 239.137 181.392V204.987C239.137 206.614 240.46 207.937 242.087 207.937C243.714 207.937 245.037 206.614 245.037 204.987V181.392C245.037 179.765 243.714 178.442 242.087 178.442Z" fill="#3F3D56"/>
<path d="M242.087 249.229C240.46 249.229 239.137 250.552 239.137 252.179V297.895C239.137 299.522 240.46 300.845 242.087 300.845C243.714 300.845 245.037 299.522 245.037 297.895V252.179C245.037 250.552 243.714 249.229 242.087 249.229Z" fill="#3F3D56"/>
<path d="M242.087 314.117C240.46 314.117 239.137 315.44 239.137 317.067V362.783C239.137 364.41 240.46 365.733 242.087 365.733C243.714 365.733 245.037 364.41 245.037 362.783V317.067C245.037 315.44 243.714 314.117 242.087 314.117Z" fill="#3F3D56"/>
<path d="M349.932 16.9596H293.523C293.216 16.9596 292.968 17.2078 292.968 17.514V23.7789C292.968 24.085 293.216 24.3332 293.523 24.3332H349.932C350.238 24.3332 350.486 24.085 350.486 23.7789V17.514C350.486 17.2078 350.238 16.9596 349.932 16.9596Z" fill="#E6E6E6"/>
<path d="M600.233 24.3332C603.491 24.3332 606.132 21.6922 606.132 18.4343C606.132 15.1764 603.491 12.5354 600.233 12.5354C596.975 12.5354 594.334 15.1764 594.334 18.4343C594.334 21.6922 596.975 24.3332 600.233 24.3332Z" fill="#E6E6E6"/>
<path d="M616.456 24.3332C619.714 24.3332 622.355 21.6922 622.355 18.4343C622.355 15.1764 619.714 12.5354 616.456 12.5354C613.198 12.5354 610.557 15.1764 610.557 18.4343C610.557 21.6922 613.198 24.3332 616.456 24.3332Z" fill="#E6E6E6"/>
<path d="M632.679 24.3332C635.937 24.3332 638.578 21.6922 638.578 18.4343C638.578 15.1764 635.937 12.5354 632.679 12.5354C629.421 12.5354 626.78 15.1764 626.78 18.4343C626.78 21.6922 629.421 24.3332 632.679 24.3332Z" fill="#E6E6E6"/>
<path d="M389.691 735.658H296.759C292.817 735.658 289.61 732.451 289.61 728.51C289.61 724.568 292.817 721.362 296.759 721.362H389.691C393.633 721.362 396.84 724.568 396.84 728.51C396.84 732.451 393.633 735.658 389.691 735.658Z" fill="#E6E6E6"/>
<path d="M646.296 594.149V687.081C646.296 691.023 643.09 694.23 639.148 694.23C635.207 694.23 632 691.023 632 687.081V594.149C632 590.207 635.207 587 639.148 587C643.09 587 646.296 590.207 646.296 594.149Z" fill="#E6E6E6"/>
<path d="M646.296 98.1486V191.081C646.296 195.023 643.09 198.23 639.148 198.23C635.207 198.23 632 195.023 632 191.081V98.1486C632 94.2069 635.207 91 639.148 91C643.09 91 646.296 94.2069 646.296 98.1486Z" fill="#E6E6E6"/>
<path d="M646.296 136.149V229.081C646.296 233.023 643.09 236.23 639.148 236.23C635.207 236.23 632 233.023 632 229.081V136.149C632 132.207 635.207 129 639.148 129C643.09 129 646.296 132.207 646.296 136.149Z" fill="#E6E6E6"/>
<path d="M646.296 322.149V415.081C646.296 419.023 643.09 422.23 639.148 422.23C635.207 422.23 632 419.023 632 415.081V322.149C632 318.207 635.207 315 639.148 315C643.09 315 646.296 318.207 646.296 322.149Z" fill="#E6E6E6"/>
<path d="M646.296 408.149V501.081C646.296 505.023 643.09 508.23 639.148 508.23C635.207 508.23 632 505.023 632 501.081V408.149C632 404.207 635.207 401 639.148 401C643.09 401 646.296 404.207 646.296 408.149Z" fill="#E6E6E6"/>
<path d="M646.296 502.5V595.433C646.296 599.374 643.09 602.581 639.148 602.581C635.207 602.581 632 599.374 632 595.433V502.5C632 498.558 635.207 495.351 639.148 495.351C643.09 495.351 646.296 498.558 646.296 502.5Z" fill="#E6E6E6"/>
<path d="M646.296 226V318.933C646.296 322.874 643.09 326.081 639.148 326.081C635.207 326.081 632 322.874 632 318.933V226C632 222.058 635.207 218.851 639.148 218.851C643.09 218.851 646.296 222.058 646.296 226Z" fill="#E6E6E6"/>
</g>
<defs>
<clipPath id="clip0_13_51">
<rect width="725" height="817" fill="white"/>
</clipPath>
</defs>
</svg>
