<svg width="1211" height="713" viewBox="0 0 1211 713" fill="none" xmlns="http://www.w3.org/2000/svg">
<g clip-path="url(#clip0_8_485)">
<path d="M1333.08 394.186L1328.71 428.98L1317.86 515.403H1099.99C1101.69 496.033 1104.01 468.152 1106.5 438.054C1106.74 435.049 1107 432.024 1107.25 428.98C1113.48 353.323 1120.29 267.709 1120.29 267.709L1148.94 273.044L1204.51 283.378L1227.16 287.586L1287.8 298.877C1318.04 304.495 1338.83 348.269 1333.08 394.186Z" fill="#F2F2F2"/>
<path d="M1073.21 127.382L1100.01 174.265L1048.51 210.758L1026.54 153.13L1073.21 127.382Z" fill="#FFB6B6"/>
<path d="M1039.1 171.735C1075.76 171.735 1105.48 142.02 1105.48 105.364C1105.48 68.708 1075.76 38.9926 1039.1 38.9926C1002.44 38.9926 972.726 68.708 972.726 105.364C972.726 142.02 1002.44 171.735 1039.1 171.735Z" fill="#FFB6B6"/>
<path d="M1034.34 120.202C1029.07 112.181 1031.13 107.986 1026.72 105.038C1026.72 105.038 1024.95 103.852 1012.24 103.176C1009.39 82.7001 1005.84 80.2171 1005.84 80.217C1001.75 77.3552 995.674 78.2851 991.895 80.0354C983.902 83.7372 984.829 91.7337 979.447 93.2639C972.013 95.3777 958.487 83.4611 957.154 69.819C956.067 58.6909 963.237 47.8828 966.081 48.4546C968.901 49.0215 975.652 40.4036 979.297 40.5365C981.786 40.6273 991.957 36.2068 994.693 36.5524C997.681 36.9299 1007.53 42.0709 1007.94 40.8963C1010.8 32.7343 1009.96 30.4696 1012.38 28.1346C1016.67 23.9971 1023.69 26.8784 1034.69 28.4252C1057.35 31.6079 1061.3 24.1399 1072.91 29.2018C1078.77 31.7588 1083.68 38.6547 1093.25 52.3422C1106.64 71.4841 1113.33 81.055 1113.38 92.2181C1113.42 103.602 1107.91 102.88 1105.48 119.733C1102.79 138.494 1108.52 147.073 1102.26 153.168C1097.42 157.879 1087.59 158.997 1082.43 154.862C1073.59 147.784 1085.16 130.704 1075.37 118.225C1069.37 110.566 1057.29 107.157 1051.75 110.944C1045.5 115.225 1048.94 127.791 1044.54 128.983C1040.78 130.003 1035.25 121.6 1034.34 120.202Z" fill="#2F2E41"/>
<path d="M1188.96 381.609C1187.11 413.262 1179.75 423.256 1177.18 460.638C1176.61 468.845 1176.27 478.372 1176.27 489.733C1176.27 492.629 1176.29 495.43 1176.29 498.166C1176.29 503.991 1176.18 509.495 1175.5 515.079C1174.99 519.536 1174.1 524.026 1172.64 528.757H1029.68C1029.66 528.725 1029.66 528.693 1029.65 528.66C1028.81 525.024 1028.28 521.548 1027.88 518.217C1027.75 517.155 1027.63 516.109 1027.54 515.079C1027.41 513.872 1027.3 512.681 1027.19 511.507C1026.75 506.823 1026.32 502.398 1025.29 498.166C1023.9 492.324 1021.39 486.82 1016.24 481.51C1014.13 479.338 1012.03 477.648 1009.97 476.168C1009.56 475.894 1009.18 475.62 1008.77 475.347C1003.08 471.436 997.686 468.62 993.018 460.638C992.938 460.526 992.874 460.397 992.809 460.285C992.004 458.884 989.913 455.215 988.399 450.323C986.806 445.238 985.841 438.849 987.579 432.316C991.715 416.835 1007.04 415.29 1019.56 399.648C1020.91 397.959 1022.24 396.092 1023.52 394.016C1029.18 384.811 1030.71 376.701 1032.51 367.061C1032.8 365.5 1033.06 363.955 1033.27 362.459C1033.43 361.332 1033.57 360.222 1033.69 359.127C1034.68 349.939 1034.2 342.021 1033.03 334.941C1029.2 311.752 1017.9 297.397 1025.88 276.59C1028.39 270.057 1031.95 265.148 1035.54 260.948C1043.13 252.049 1050.94 246.272 1049.59 234.783C1048.22 223.196 1039.43 221.602 1038.45 211.48C1037.95 206.363 1039.62 200.972 1042.76 195.678V195.662C1052.81 178.62 1077.88 162.93 1093.81 163.429C1096.76 163.509 1099.36 164.169 1101.54 165.44C1109.41 170.074 1106.12 180.197 1118.18 194.391C1127.14 204.931 1137.28 209.147 1141.13 211.142C1156.37 219.092 1168.76 242.539 1177.18 272.519C1177.24 272.744 1177.3 272.969 1177.37 273.211C1182.57 291.991 1186.24 313.313 1188.06 334.941C1188.83 344.097 1189.28 353.303 1189.37 362.41C1189.46 369.684 1189.29 375.993 1188.96 381.609Z" fill="#FF8398"/>
<path d="M1081.9 490.055L1078.99 498.166L1077.16 503.251L1072.91 515.079L1067.98 528.757H1036.33L1041.64 515.079L1044.1 508.706L1048.19 498.166L1055.04 480.464L1081.9 490.055Z" fill="#FFB6B6"/>
<path d="M1177.68 269.75C1177.6 270.797 1177.48 271.955 1177.37 273.211C1176.11 285.988 1173.15 308.855 1168.82 334.941C1166.54 348.7 1163.87 363.36 1160.86 377.924C1154.39 409.352 1146.34 440.298 1137.25 460.638C1135.62 464.308 1133.95 467.623 1132.24 470.551C1130.94 472.788 1129.57 474.992 1128.14 477.165C1123.5 484.294 1118.31 491.053 1112.91 497.361C1112.71 497.635 1112.46 497.892 1112.22 498.166C1111.35 499.195 1110.45 500.21 1109.55 501.223C1105.14 506.196 1100.64 510.83 1096.27 515.079C1090.96 520.261 1085.84 524.847 1081.26 528.757H1029.86L1029.65 528.66L1022.24 525.378C1022.24 525.378 1024.35 522.899 1027.88 518.217C1028.6 517.267 1029.37 516.221 1030.21 515.079C1031.24 513.678 1032.35 512.134 1033.54 510.46C1036.02 506.952 1038.84 502.832 1041.86 498.166C1047.72 489.137 1054.4 478.034 1061.14 465.177C1061.92 463.68 1062.7 462.167 1063.49 460.638C1063.51 460.59 1063.54 460.541 1063.56 460.493C1064.89 457.886 1066.21 455.199 1067.53 452.463C1078.72 429.194 1081.92 409.883 1082.84 403.623C1084.12 394.773 1085.91 382.397 1085.43 368.783C1085.1 359.804 1083.8 350.309 1080.7 340.879V340.863C1080.05 338.884 1079.33 336.905 1078.51 334.941C1077.04 331.417 1075.3 327.941 1073.24 324.513C1064.15 309.419 1056.77 308.791 1050.89 292.344C1049.15 287.468 1045.21 276.462 1046.42 264.843V264.827C1046.56 263.394 1046.8 261.946 1047.12 260.497V260.482C1047.2 260.079 1047.32 259.661 1047.43 259.259C1048.35 255.703 1049.86 252.178 1052.16 248.83C1056.65 242.33 1062.78 238.467 1068.27 236.166L1068.29 236.15C1074.63 233.511 1080.1 232.948 1081.16 232.851C1104.67 230.759 1122.91 250.52 1132.87 261.318C1136.72 265.486 1140.24 268.979 1143.46 271.826C1168.52 294.195 1175.39 279.905 1177.18 272.519C1177.45 271.376 1177.6 270.395 1177.68 269.75Z" fill="#FF8398"/>
<path d="M1177.76 268.914C1177.76 268.995 1177.74 269.268 1177.68 269.719C1177.71 269.477 1177.72 269.236 1177.74 269.01C1177.74 268.962 1177.74 268.93 1177.76 268.914Z" fill="#FF8398"/>
<path d="M1145 608.802H282.313C274.297 608.802 267.764 615.319 267.764 623.334C267.764 631.364 274.297 637.881 282.313 637.881H1145C1153.02 637.881 1159.54 631.364 1159.54 623.334C1159.54 615.319 1153.02 608.802 1145 608.802Z" fill="#E6E6E6"/>
<path d="M953.556 683.921H473.744C465.73 683.921 459.212 690.438 459.212 698.452C459.212 706.466 465.73 713 473.744 713H953.556C961.57 713 968.104 706.466 968.104 698.452C968.104 690.438 961.57 683.921 953.556 683.921Z" fill="#E6E6E6"/>
<path d="M378.309 130.79L432.678 107.911L455.999 155.714L398.864 179.032L378.309 130.79Z" fill="#FFB6B6"/>
<path opacity="0.1" d="M378.309 130.79L432.678 107.911L455.999 155.714L398.864 179.032L378.309 130.79Z" fill="black"/>
<path d="M386.038 112.574L439.675 174.368C439.675 174.368 402.362 292.127 365.05 302.621C327.737 313.114 258.943 364.415 258.943 364.415L172.658 308.45L214.634 246.656C214.634 246.656 316.077 107.911 342.896 107.911C369.714 107.911 386.038 112.574 386.038 112.574Z" fill="#FF8398"/>
<path d="M313.57 515.402H188.714L180.82 504.851L148.592 461.77L141.176 451.859C141.176 451.859 113.191 400.559 119.022 353.921C124.852 307.284 185.484 296.791 185.484 296.791H187.979L262.208 362.013L257.777 422.711L281.284 461.77L313.57 515.402Z" fill="#2F2E41"/>
<path d="M214.285 515.402H180.82V465.851L214.285 515.402Z" fill="#2F2E41"/>
<path d="M936.069 440.177L931.906 461.77L921.575 515.402H714.037C715.657 503.382 717.873 486.079 720.24 467.401C720.473 465.536 720.718 463.659 720.951 461.77C726.886 414.818 733.381 361.686 733.381 361.686L760.666 364.998L813.602 371.41L835.174 374.022L892.938 381.029C921.738 384.515 941.549 411.682 936.069 440.177Z" fill="#F2F2F2"/>
<path d="M1229.78 515.403H1117.21C1118.92 513.385 1119.89 512.22 1119.89 512.22L1153.63 506.646L1223.16 495.174C1223.16 495.174 1226.34 503.37 1229.78 515.403Z" fill="#2F2E41"/>
<path d="M752.298 154.11L801.251 223.336L715.861 225.886L706.695 160.83L752.298 154.11Z" fill="#A0616A"/>
<path opacity="0.1" d="M752.298 154.11L801.251 223.336L715.861 225.886L706.695 160.83L752.298 154.11Z" fill="black"/>
<path d="M510.881 297.542C504.6 279.423 490.159 267.977 478.628 271.976C467.097 275.975 462.845 293.903 469.13 312.027C471.542 319.301 475.661 325.892 481.142 331.249L508.726 407.682L544.32 393.974L513.349 320.08C514.338 312.478 513.492 304.75 510.881 297.542Z" fill="#A0616A"/>
<path d="M842.248 262.268L842.181 332.818L835.617 358.877L822.114 412.474L812.285 461.77L804.962 498.497L802.35 511.613C800.38 512.931 798.421 514.19 796.462 515.402H625.91C616.22 509.585 610.798 505.061 610.798 505.061C610.798 505.061 613.48 502.542 616.547 498.497C621.724 491.664 627.985 480.471 624.149 469.78C623.345 467.541 623.135 464.813 623.379 461.77C624.942 441.693 646 407.741 646 407.741L641.639 357.349L639.727 335.267L653.21 227.592L697.157 202.047L704.744 201.313L779.637 197.267L810.591 199.051L812.002 199.436L842.248 262.268Z" fill="#CCCCCC"/>
<path d="M845.574 515.402H808.262L806.618 498.497L806.583 498.158L817.147 497.435L844.63 495.558L845.108 505.679L845.481 513.444L845.574 515.402Z" fill="#FFB6B6"/>
<path d="M854.76 279.325L870.434 371.282L857.643 461.77L855.649 475.854L852.127 500.723L851.043 508.372L851.078 509.2L851.346 515.402H807.038L805.405 498.497L805.266 496.981L801.931 462.353L801.872 461.77L794.795 388.34L808.67 335.267L809.697 331.361V331.349L815.733 240.477L811.058 199.179L811.011 198.795C811.104 198.853 811.186 198.911 811.279 198.969C811.524 199.121 811.769 199.273 812.002 199.436C839.24 216.715 855.471 247.029 854.76 279.325Z" fill="#CCCCCC"/>
<path d="M669.083 245.213L652.044 227.591C652.044 227.591 615.569 244.034 613.751 253.156C611.933 262.278 547.532 396.258 547.532 396.258L519.514 321.431L483.043 345.779C483.043 345.779 512.307 461.952 539.675 467.406C567.044 472.86 658.77 329.904 658.77 329.904L669.083 245.213Z" fill="#CCCCCC"/>
<path d="M1360.93 460.961H34.0541C15.2731 460.961 0 476.249 0 495.029C0 513.808 15.2731 529.08 34.0541 529.08H1360.93C1379.71 529.08 1395 513.809 1395 495.029C1395 476.248 1379.71 460.961 1360.93 460.961Z" fill="#E6E6E6"/>
<path d="M834.483 357.153L831.904 477.528C831.654 489.181 822.135 498.497 810.479 498.497H589.029C577.648 498.497 568.253 489.601 567.632 478.239L561.05 357.864C560.379 345.588 570.153 335.267 582.448 335.267H813.059C825.074 335.267 834.741 345.142 834.483 357.153Z" fill="#3F3D56"/>
<path d="M476.987 159.847C506.248 159.847 529.969 136.128 529.969 106.869C529.969 77.6091 506.248 53.8896 476.987 53.8896C447.725 53.8896 424.004 77.6091 424.004 106.869C424.004 136.128 447.725 159.847 476.987 159.847Z" fill="#FFB6B6"/>
<path d="M388.37 245.49L394.2 308.45L433.844 468.182L399.594 480.186L341.73 306.118L333.737 236.163L388.37 245.49Z" fill="#FFB6B6"/>
<path d="M372.6 357.153L370.02 477.528C369.771 489.181 360.252 498.497 348.596 498.497H127.146C115.765 498.497 106.37 489.601 105.748 478.239L99.1672 357.864C98.4961 345.588 108.27 335.267 120.564 335.267H351.176C363.19 335.267 372.857 345.142 372.6 357.153Z" fill="#3F3D56"/>
<path d="M440.157 499.31C463.266 499.31 482 491.025 482 480.804C482 470.583 463.266 462.298 440.157 462.298C417.048 462.298 398.314 470.583 398.314 480.804C398.314 491.025 417.048 499.31 440.157 499.31Z" fill="#FFB6B6"/>
<path d="M306.166 255.116L330.069 127.731C330.069 127.731 396.532 118.404 398.864 140.557C401.196 162.709 397.198 270.972 397.198 270.972L306.166 255.116Z" fill="#FF8398"/>
<path d="M455.599 115.199C455.599 115.199 488.374 103.502 502.199 97.2088C516.024 90.9156 543.49 134.811 544.101 111.628C544.712 88.4457 535.222 78.724 535.222 78.724C535.222 78.724 532.852 28.0088 481.754 34.3494C481.754 34.3494 492.993 8.97605 456.1 5.05252C419.206 1.129 361.809 90.2148 366.949 103.528C372.09 116.842 378.252 127.848 363.668 142.083C349.084 156.318 321.776 236.657 342.553 258.275C363.331 279.894 364.694 289.275 350.458 302.724C336.223 316.174 302.573 345.418 338.956 350.495C375.339 355.572 335.627 351.78 362.751 327.923C389.875 304.066 429.455 305.041 414.676 266.765C399.898 228.489 425.573 173.64 422.361 165.319C419.148 156.998 429.558 104.16 429.558 104.16C429.558 104.16 453.787 100.6 455.599 115.199Z" fill="#2F2E41"/>
<path d="M726.124 179.167C757.977 179.167 783.799 153.346 783.799 121.495C783.799 89.6443 757.977 63.8239 726.124 63.8239C694.271 63.8239 668.448 89.6443 668.448 121.495C668.448 153.346 694.271 179.167 726.124 179.167Z" fill="#A0616A"/>
<path d="M730.727 43.9602C729.058 44.9343 726.823 43.4604 726.287 41.6037C725.752 39.747 726.376 37.7756 726.994 35.9449L730.106 26.7285C732.313 20.1921 734.655 13.4273 739.435 8.45218C746.649 0.943097 758.115 -0.967177 768.436 0.416749C781.691 2.19399 794.768 9.37062 800.931 21.2381C807.094 33.1056 804.47 49.665 793.334 57.0691C809.205 75.2589 814.738 95.5308 813.864 119.655C812.991 143.779 786.7 165.981 769.554 182.975C765.725 180.654 762.245 169.778 764.35 165.827C766.456 161.875 763.439 157.298 766.047 153.658C768.654 150.019 770.836 155.814 768.2 152.195C766.536 149.912 773.029 144.658 770.556 143.292C758.596 136.681 754.618 121.774 747.106 110.359C738.046 96.5904 722.539 87.2661 706.128 85.7192C697.088 84.867 687.54 86.4104 680.13 91.6582C672.721 96.9061 667.924 106.284 669.642 115.199C665.192 110.681 662.977 104.06 663.812 97.774C664.648 91.488 668.516 85.6752 673.991 82.4762C670.662 71.4667 673.514 58.8027 681.242 50.2831C688.97 41.7637 720.318 43.2147 731.599 45.4569L730.727 43.9602Z" fill="#2F2E41"/>
<path d="M732.479 86.0534C747.422 87.6663 758.211 100.609 767.321 112.562C772.572 119.451 778.072 127.059 777.94 135.72C777.807 144.476 771.952 151.987 769.154 160.285C764.58 173.849 769.038 189.988 779.925 199.282C769.167 201.323 757.537 193.257 755.68 182.466C753.518 169.905 763.041 157.781 761.913 145.084C760.92 133.899 752.104 125.29 744.61 116.926C737.115 108.563 730.077 97.4646 733.525 86.7772L732.479 86.0534Z" fill="#2F2E41"/>
<path d="M860.806 467.928C846.005 476.345 838.351 490.805 843.71 500.223C849.069 509.641 865.41 510.449 880.215 502.026C886.175 498.743 891.262 494.08 895.05 488.428L957.312 451.969L939.579 423.119L880.083 462.123C873.286 462.491 866.676 464.481 860.806 467.928Z" fill="#FFB6B6"/>
<path d="M1071.61 200.575C1069.75 199.838 1053.42 193.656 1038.52 201.818C1021.4 211.194 1018.75 232.597 1017.83 240.103C1015.68 257.445 1022 261.331 1023.33 278.887C1025.82 311.732 1032.4 274.262 1021.9 289.255C1018.26 294.444 981.153 374.863 960.687 390.615C920.882 421.25 895.606 442.825 895.606 442.825L924.462 474.169C924.462 474.169 970.06 462.02 1010.36 435.853C1051.7 409.011 1072.38 395.59 1088.37 369.335C1089.74 367.074 1122.7 311.119 1105 249.246C1100.96 235.134 1093.57 209.275 1071.61 200.575Z" fill="#FF8398"/>
<path d="M1220.62 356.83L1218.04 477.205C1217.79 488.857 1208.27 498.173 1196.61 498.173H975.161C963.781 498.173 954.385 489.278 953.764 477.915L947.183 357.541C946.512 345.265 956.285 334.943 968.58 334.943H1199.19C1211.21 334.943 1220.87 344.819 1220.62 356.83Z" fill="#3F3D56"/>
</g>
<defs>
<clipPath id="clip0_8_485">
<rect width="1395" height="713" fill="white"/>
</clipPath>
</defs>
</svg>
