<svg width="1715" height="1175" viewBox="0 0 1715 1175" fill="none" xmlns="http://www.w3.org/2000/svg">
<g clip-path="url(#clip0_77_14)">
<path d="M573.946 1147.74C577.452 1147.94 579.389 1143.85 576.737 1141.46L576.473 1140.47C576.508 1140.4 576.543 1140.32 576.578 1140.24C580.123 1132.29 592.137 1132.34 595.652 1140.3C598.771 1147.37 602.743 1154.45 603.721 1161.92C604.159 1165.21 603.962 1168.57 603.184 1171.81C610.493 1156.79 614.34 1140.4 614.34 1123.91C614.34 1119.77 614.099 1115.63 613.606 1111.5C613.2 1108.12 612.641 1104.76 611.918 1101.43C608.006 1083.44 599.534 1066.3 587.315 1051.99C581.441 1048.97 576.543 1044.25 573.584 1038.59C572.521 1036.55 571.688 1034.36 571.293 1032.12C571.962 1032.2 573.814 1022.63 573.31 1022.04C574.241 1020.71 575.909 1020.05 576.926 1018.76C581.986 1012.31 588.958 1013.43 592.598 1022.2C600.372 1025.89 600.448 1032.01 595.677 1037.89C592.642 1041.64 592.225 1046.7 589.562 1050.71C589.836 1051.04 590.121 1051.36 590.395 1051.69C595.419 1057.75 599.764 1064.26 603.428 1071.1C602.392 1063.5 603.921 1054.34 606.526 1048.43C609.493 1041.7 615.052 1036.04 619.948 1030.22C625.829 1023.23 637.889 1026.28 638.925 1035.14C638.935 1035.23 638.944 1035.31 638.954 1035.4C638.227 1035.78 637.514 1036.19 636.818 1036.63C632.849 1039.09 634.221 1044.88 638.924 1045.56L639.031 1045.58C638.768 1048.04 638.318 1050.48 637.661 1052.88C643.942 1075.72 630.382 1084.04 611.02 1084.42C610.592 1084.62 610.176 1084.83 609.748 1085.02C611.71 1090.22 613.277 1095.54 614.439 1100.94C615.48 1105.71 616.203 1110.54 616.609 1115.38C617.113 1121.49 617.069 1127.63 616.521 1133.73L616.554 1133.52C617.946 1126.8 621.825 1120.52 627.458 1116.17C635.849 1109.69 647.705 1107.31 656.758 1102.1C661.115 1099.59 666.699 1102.83 665.939 1107.58L665.902 1107.81C664.554 1108.32 663.239 1108.92 661.968 1109.59C661.241 1109.98 660.528 1110.38 659.832 1110.82C655.863 1113.29 657.235 1119.07 661.938 1119.75L662.044 1119.77C662.121 1119.78 662.187 1119.79 662.264 1119.8C659.951 1124.96 656.729 1129.76 652.696 1133.89C648.769 1153.83 631.901 1155.72 613.858 1149.91H613.847C611.874 1157.99 608.992 1165.88 605.288 1173.4H574.713C574.603 1173.09 574.504 1172.76 574.406 1172.44C577.233 1172.6 580.082 1172.45 582.866 1171.96C580.597 1169.34 578.329 1166.71 576.06 1164.09C576.006 1164.04 575.962 1163.99 575.918 1163.94C574.767 1162.6 573.606 1161.27 572.455 1159.93L572.454 1159.93C572.382 1155.81 572.908 1151.71 573.946 1147.74Z" fill="#F2F2F2"/>
<path d="M131.498 1147.74C132.537 1151.71 133.062 1155.81 132.99 1159.93L132.989 1159.93C131.839 1161.27 130.677 1162.6 129.526 1163.94C129.482 1163.99 129.439 1164.04 129.384 1164.09C127.115 1166.71 124.847 1169.34 122.578 1171.96C125.362 1172.45 128.211 1172.6 131.039 1172.44C130.94 1172.76 130.841 1173.09 130.732 1173.4H100.156C96.4521 1165.88 93.5699 1157.99 91.5973 1149.91H91.5863C73.5429 1155.72 56.675 1153.83 52.7477 1133.89C48.7148 1129.76 45.493 1124.96 43.1806 1119.8C43.2572 1119.79 43.323 1119.78 43.3997 1119.77L43.5063 1119.75C48.2096 1119.07 49.5815 1113.29 45.612 1110.82C44.9161 1110.38 44.2036 1109.98 43.4764 1109.59C42.2052 1108.92 40.8902 1108.32 39.5422 1107.81L39.5052 1107.58C38.7447 1102.83 44.3288 1099.59 48.6866 1102.1C57.7394 1107.31 69.5948 1109.69 77.9862 1116.17C83.6191 1120.52 87.4986 1126.8 88.8904 1133.52L88.9233 1133.73C88.3753 1127.63 88.3314 1121.49 88.8356 1115.38C89.241 1110.54 89.9644 1105.71 91.0055 1100.94C92.167 1095.54 93.7342 1090.22 95.6959 1085.02C95.2685 1084.83 94.852 1084.62 94.4245 1084.42C75.0625 1084.04 61.5024 1075.72 67.7834 1052.88C67.1259 1050.48 66.6766 1048.04 66.4135 1045.58L66.52 1045.56C71.2234 1044.88 72.5952 1039.09 68.6258 1036.63C67.9298 1036.19 67.2174 1035.78 66.4902 1035.4C66.4998 1035.31 66.5095 1035.23 66.5195 1035.14C67.5557 1026.28 79.6149 1023.23 85.4958 1030.22C90.3918 1036.04 95.9515 1041.7 98.9177 1048.43C101.523 1054.34 103.052 1063.5 102.017 1071.1C105.68 1064.26 110.025 1057.75 115.049 1051.69C115.323 1051.36 115.608 1051.04 115.882 1050.71C113.219 1046.7 112.802 1041.64 109.767 1037.89C104.997 1032.01 105.072 1025.89 112.847 1022.2C116.486 1013.43 123.458 1012.31 128.518 1018.76C129.535 1020.05 131.203 1020.71 132.134 1022.04C131.63 1022.63 133.482 1032.2 134.151 1032.12C133.756 1034.36 132.923 1036.55 131.86 1038.59C128.902 1044.25 124.003 1048.97 118.129 1051.99C105.91 1066.3 97.4383 1083.44 93.5261 1101.43C92.8027 1104.76 92.2439 1108.12 91.8383 1111.5C91.3452 1115.63 91.1041 1119.77 91.1041 1123.91C91.1041 1140.4 94.9507 1156.79 102.26 1171.81C101.482 1168.57 101.285 1165.21 101.723 1161.92C102.701 1154.45 106.673 1147.37 109.793 1140.3C113.307 1132.34 125.321 1132.29 128.866 1140.24C128.901 1140.32 128.936 1140.4 128.971 1140.47L128.707 1141.46C126.055 1143.85 127.993 1147.94 131.498 1147.74Z" fill="#F2F2F2"/>
<path d="M455.31 735.959H266.903L267.11 734.189L333.927 162.801H397.677L397.822 164.246L455.31 735.959ZM275.78 732.768H446.49L394.588 165.992H336.967L275.78 732.768Z" fill="#3F3D56"/>
<path d="M504.539 759.117H213.796V732.768H504.539V759.117ZM217.189 755.926H501.146V735.959H217.189V755.926Z" fill="#3F3D56"/>
<path d="M419.07 165.992H314.736V139.642H419.07V165.992ZM318.129 162.801H415.676V142.833H318.129V162.801Z" fill="#3F3D56"/>
<path d="M468.252 797.738L508.277 951.486H522.191L468.252 797.738ZM508.277 951.486H468.862L428.497 796.414L427.666 793.223L418.792 759.114H454.712L466.674 793.223L467.793 796.414L468.252 797.738L467.912 796.414L467.081 793.223L457.375 755.923H414.482L424.187 793.223L425.019 796.414L466.215 954.677H509.109L508.277 951.486Z" fill="#3F3D56"/>
<path d="M251.053 793.223L249.865 796.414L192.685 951.486H210.06L250.425 796.414L251.257 793.223L251.749 791.325L251.053 793.223ZM260.962 755.923L251.749 791.325L263.626 759.114H299.529L290.655 793.223L289.823 796.414L249.458 951.486H210.06L209.228 954.677H252.122L293.319 796.414L294.15 793.223L303.855 755.923H260.962Z" fill="#3F3D56"/>
<path d="M618.651 1173.4H545.791L476.545 1069.68L479.663 1068.43L548.028 1170.21H610.108L525.178 976.874L528.296 975.615L618.651 1173.4Z" fill="#3F3D56"/>
<path d="M167.616 1173.4H94.7581L185.113 975.615L188.232 976.874L103.303 1170.21H165.381L233.745 1068.43L236.863 1069.68L167.616 1173.4Z" fill="#3F3D56"/>
<path d="M646.175 977.84H83.3995V951.491H646.175V977.84ZM86.793 974.649H642.782V954.682H86.793V974.649Z" fill="#3F3D56"/>
<path d="M511.797 1123.11C408.659 1083.27 304.067 1083.27 200.925 1123.11L198.879 1120.29C297.359 1064.28 389.437 1054.68 513.843 1120.29L511.797 1123.11Z" fill="#3F3D56"/>
<path d="M503.296 1080.43C406.225 1040.53 307.785 1040.53 210.713 1080.43L209.225 1077.53C307.285 1037.23 406.725 1037.23 504.785 1077.53L503.296 1080.43Z" fill="#3F3D56"/>
<path d="M467.912 796.414H249.865L251.053 793.223H467.081L467.912 796.414Z" fill="#3F3D56"/>
<path d="M473.121 814.907H244.062L247.456 808.316H471.424L473.121 814.907Z" fill="#3F3D56"/>
<path d="M397.829 142.992H333.75V89.3973H397.829V142.992ZM337.144 139.802H394.436V95.7788L340.537 92.5881L337.144 139.802Z" fill="#3F3D56"/>
<path d="M374.566 92.588H355.007V0H374.566V92.588ZM358.401 89.3973H371.173L366.227 2.64277L358.401 3.19078V89.3973Z" fill="#3F3D56"/>
<path d="M551.997 644.813C548.914 637.344 539.976 633.639 532.033 636.537C524.165 639.408 520.229 647.681 523.151 655.095L522.92 655.179L534.083 682.226L560.552 672.567C561.427 672.405 562.299 672.173 563.159 671.859C571.102 668.96 575.043 660.556 571.96 653.088C568.878 645.619 559.94 641.914 551.997 644.813Z" fill="#FF8398"/>
<path d="M307.667 908.052C304.585 900.584 295.647 896.879 287.704 899.777C279.836 902.648 275.9 910.92 278.821 918.335L278.591 918.419L289.754 945.465L316.222 935.807C317.097 935.644 317.97 935.413 318.83 935.099C326.773 932.2 330.713 923.796 327.631 916.327C324.548 908.859 315.61 905.154 307.667 908.052Z" fill="#FF8398"/>
<path d="M249.583 348.863C241.1 348.115 233.578 353.975 232.782 361.951C231.994 369.852 238.102 376.862 246.462 377.721L246.439 377.953L277.159 380.662L279.81 354.083C280.047 353.274 280.216 352.437 280.302 351.573C281.098 343.596 274.866 336.524 266.383 335.776C257.9 335.027 250.378 340.887 249.583 348.863Z" fill="#FF8398"/>
<path d="M1197 1171.81H0V1175H1197V1171.81Z" fill="#3F3D56"/>
</g>
<rect x="22" y="270" width="753" height="368" rx="36" fill="white" stroke="#3F3D56" stroke-width="6"/>
<path d="M115.625 404.141C115.625 402.922 115.438 401.828 115.062 400.859C114.719 399.859 114.062 398.953 113.094 398.141C112.125 397.297 110.766 396.469 109.016 395.656C107.266 394.844 105 394 102.219 393.125C99.125 392.125 96.1875 391 93.4062 389.75C90.6562 388.5 88.2188 387.047 86.0938 385.391C84 383.703 82.3438 381.75 81.125 379.531C79.9375 377.312 79.3438 374.734 79.3438 371.797C79.3438 368.953 79.9688 366.375 81.2188 364.062C82.4688 361.719 84.2188 359.719 86.4688 358.062C88.7188 356.375 91.375 355.078 94.4375 354.172C97.5312 353.266 100.922 352.812 104.609 352.812C109.641 352.812 114.031 353.719 117.781 355.531C121.531 357.344 124.438 359.828 126.5 362.984C128.594 366.141 129.641 369.75 129.641 373.812H115.672C115.672 371.812 115.25 370.062 114.406 368.562C113.594 367.031 112.344 365.828 110.656 364.953C109 364.078 106.906 363.641 104.375 363.641C101.938 363.641 99.9062 364.016 98.2812 364.766C96.6562 365.484 95.4375 366.469 94.625 367.719C93.8125 368.938 93.4062 370.312 93.4062 371.844C93.4062 373 93.6875 374.047 94.25 374.984C94.8438 375.922 95.7188 376.797 96.875 377.609C98.0312 378.422 99.4531 379.188 101.141 379.906C102.828 380.625 104.781 381.328 107 382.016C110.719 383.141 113.984 384.406 116.797 385.812C119.641 387.219 122.016 388.797 123.922 390.547C125.828 392.297 127.266 394.281 128.234 396.5C129.203 398.719 129.688 401.234 129.688 404.047C129.688 407.016 129.109 409.672 127.953 412.016C126.797 414.359 125.125 416.344 122.938 417.969C120.75 419.594 118.141 420.828 115.109 421.672C112.078 422.516 108.688 422.938 104.938 422.938C101.562 422.938 98.2344 422.5 94.9531 421.625C91.6719 420.719 88.6875 419.359 86 417.547C83.3438 415.734 81.2188 413.422 79.625 410.609C78.0312 407.797 77.2344 404.469 77.2344 400.625H91.3438C91.3438 402.75 91.6719 404.547 92.3281 406.016C92.9844 407.484 93.9062 408.672 95.0938 409.578C96.3125 410.484 97.75 411.141 99.4062 411.547C101.094 411.953 102.938 412.156 104.938 412.156C107.375 412.156 109.375 411.812 110.938 411.125C112.531 410.438 113.703 409.484 114.453 408.266C115.234 407.047 115.625 405.672 115.625 404.141ZM152.656 371.281V422H139.109V371.281H152.656ZM138.266 358.062C138.266 356.094 138.953 354.469 140.328 353.188C141.703 351.906 143.547 351.266 145.859 351.266C148.141 351.266 149.969 351.906 151.344 353.188C152.75 354.469 153.453 356.094 153.453 358.062C153.453 360.031 152.75 361.656 151.344 362.938C149.969 364.219 148.141 364.859 145.859 364.859C143.547 364.859 141.703 364.219 140.328 362.938C138.953 361.656 138.266 360.031 138.266 358.062ZM178.062 350V422H164.516V350H178.062ZM216.594 410.562V387.969C216.594 386.344 216.328 384.953 215.797 383.797C215.266 382.609 214.438 381.688 213.312 381.031C212.219 380.375 210.797 380.047 209.047 380.047C207.547 380.047 206.25 380.312 205.156 380.844C204.062 381.344 203.219 382.078 202.625 383.047C202.031 383.984 201.734 385.094 201.734 386.375H188.234C188.234 384.219 188.734 382.172 189.734 380.234C190.734 378.297 192.188 376.594 194.094 375.125C196 373.625 198.266 372.453 200.891 371.609C203.547 370.766 206.516 370.344 209.797 370.344C213.734 370.344 217.234 371 220.297 372.312C223.359 373.625 225.766 375.594 227.516 378.219C229.297 380.844 230.188 384.125 230.188 388.062V409.766C230.188 412.547 230.359 414.828 230.703 416.609C231.047 418.359 231.547 419.891 232.203 421.203V422H218.562C217.906 420.625 217.406 418.906 217.062 416.844C216.75 414.75 216.594 412.656 216.594 410.562ZM218.375 391.109L218.469 398.75H210.922C209.141 398.75 207.594 398.953 206.281 399.359C204.969 399.766 203.891 400.344 203.047 401.094C202.203 401.812 201.578 402.656 201.172 403.625C200.797 404.594 200.609 405.656 200.609 406.812C200.609 407.969 200.875 409.016 201.406 409.953C201.938 410.859 202.703 411.578 203.703 412.109C204.703 412.609 205.875 412.859 207.219 412.859C209.25 412.859 211.016 412.453 212.516 411.641C214.016 410.828 215.172 409.828 215.984 408.641C216.828 407.453 217.266 406.328 217.297 405.266L220.859 410.984C220.359 412.266 219.672 413.594 218.797 414.969C217.953 416.344 216.875 417.641 215.562 418.859C214.25 420.047 212.672 421.031 210.828 421.812C208.984 422.562 206.797 422.938 204.266 422.938C201.047 422.938 198.125 422.297 195.5 421.016C192.906 419.703 190.844 417.906 189.312 415.625C187.812 413.312 187.062 410.688 187.062 407.75C187.062 405.094 187.562 402.734 188.562 400.672C189.562 398.609 191.031 396.875 192.969 395.469C194.938 394.031 197.391 392.953 200.328 392.234C203.266 391.484 206.672 391.109 210.547 391.109H218.375ZM278 381.031V441.5H264.5V371.281H277.016L278 381.031ZM310.109 396.078V397.062C310.109 400.75 309.672 404.172 308.797 407.328C307.953 410.484 306.703 413.234 305.047 415.578C303.391 417.891 301.328 419.703 298.859 421.016C296.422 422.297 293.609 422.938 290.422 422.938C287.328 422.938 284.641 422.312 282.359 421.062C280.078 419.812 278.156 418.062 276.594 415.812C275.062 413.531 273.828 410.891 272.891 407.891C271.953 404.891 271.234 401.672 270.734 398.234V395.656C271.234 391.969 271.953 388.594 272.891 385.531C273.828 382.438 275.062 379.766 276.594 377.516C278.156 375.234 280.062 373.469 282.312 372.219C284.594 370.969 287.266 370.344 290.328 370.344C293.547 370.344 296.375 370.953 298.812 372.172C301.281 373.391 303.344 375.141 305 377.422C306.688 379.703 307.953 382.422 308.797 385.578C309.672 388.734 310.109 392.234 310.109 396.078ZM296.562 397.062V396.078C296.562 393.922 296.375 391.938 296 390.125C295.656 388.281 295.094 386.672 294.312 385.297C293.562 383.922 292.562 382.859 291.312 382.109C290.094 381.328 288.609 380.938 286.859 380.938C285.016 380.938 283.438 381.234 282.125 381.828C280.844 382.422 279.797 383.281 278.984 384.406C278.172 385.531 277.562 386.875 277.156 388.438C276.75 390 276.5 391.766 276.406 393.734V400.25C276.562 402.562 277 404.641 277.719 406.484C278.438 408.297 279.547 409.734 281.047 410.797C282.547 411.859 284.516 412.391 286.953 412.391C288.734 412.391 290.234 412 291.453 411.219C292.672 410.406 293.656 409.297 294.406 407.891C295.188 406.484 295.734 404.859 296.047 403.016C296.391 401.172 296.562 399.188 296.562 397.062ZM332.75 371.281V422H319.203V371.281H332.75ZM318.359 358.062C318.359 356.094 319.047 354.469 320.422 353.188C321.797 351.906 323.641 351.266 325.953 351.266C328.234 351.266 330.062 351.906 331.438 353.188C332.844 354.469 333.547 356.094 333.547 358.062C333.547 360.031 332.844 361.656 331.438 362.938C330.062 364.219 328.234 364.859 325.953 364.859C323.641 364.859 321.797 364.219 320.422 362.938C319.047 361.656 318.359 360.031 318.359 358.062ZM358.156 350V422H344.609V350H358.156ZM383.562 371.281V422H370.016V371.281H383.562ZM369.172 358.062C369.172 356.094 369.859 354.469 371.234 353.188C372.609 351.906 374.453 351.266 376.766 351.266C379.047 351.266 380.875 351.906 382.25 353.188C383.656 354.469 384.359 356.094 384.359 358.062C384.359 360.031 383.656 361.656 382.25 362.938C380.875 364.219 379.047 364.859 376.766 364.859C374.453 364.859 372.609 364.219 371.234 362.938C369.859 361.656 369.172 360.031 369.172 358.062ZM407.891 350V422H394.391V350H407.891ZM405.969 394.859H402.266C402.297 391.328 402.766 388.078 403.672 385.109C404.578 382.109 405.875 379.516 407.562 377.328C409.25 375.109 411.266 373.391 413.609 372.172C415.984 370.953 418.609 370.344 421.484 370.344C423.984 370.344 426.25 370.703 428.281 371.422C430.344 372.109 432.109 373.234 433.578 374.797C435.078 376.328 436.234 378.344 437.047 380.844C437.859 383.344 438.266 386.375 438.266 389.938V422H424.672V389.844C424.672 387.594 424.344 385.828 423.688 384.547C423.062 383.234 422.141 382.312 420.922 381.781C419.734 381.219 418.266 380.938 416.516 380.938C414.578 380.938 412.922 381.297 411.547 382.016C410.203 382.734 409.125 383.734 408.312 385.016C407.5 386.266 406.906 387.734 406.531 389.422C406.156 391.109 405.969 392.922 405.969 394.859ZM497.281 371.281V380.844H467.75V371.281H497.281ZM475.062 358.766H488.562V406.719C488.562 408.188 488.75 409.312 489.125 410.094C489.531 410.875 490.125 411.422 490.906 411.734C491.688 412.016 492.672 412.156 493.859 412.156C494.703 412.156 495.453 412.125 496.109 412.062C496.797 411.969 497.375 411.875 497.844 411.781L497.891 421.719C496.734 422.094 495.484 422.391 494.141 422.609C492.797 422.828 491.312 422.938 489.688 422.938C486.719 422.938 484.125 422.453 481.906 421.484C479.719 420.484 478.031 418.891 476.844 416.703C475.656 414.516 475.062 411.641 475.062 408.078V358.766ZM532.344 410.562V387.969C532.344 386.344 532.078 384.953 531.547 383.797C531.016 382.609 530.188 381.688 529.062 381.031C527.969 380.375 526.547 380.047 524.797 380.047C523.297 380.047 522 380.312 520.906 380.844C519.812 381.344 518.969 382.078 518.375 383.047C517.781 383.984 517.484 385.094 517.484 386.375H503.984C503.984 384.219 504.484 382.172 505.484 380.234C506.484 378.297 507.938 376.594 509.844 375.125C511.75 373.625 514.016 372.453 516.641 371.609C519.297 370.766 522.266 370.344 525.547 370.344C529.484 370.344 532.984 371 536.047 372.312C539.109 373.625 541.516 375.594 543.266 378.219C545.047 380.844 545.938 384.125 545.938 388.062V409.766C545.938 412.547 546.109 414.828 546.453 416.609C546.797 418.359 547.297 419.891 547.953 421.203V422H534.312C533.656 420.625 533.156 418.906 532.812 416.844C532.5 414.75 532.344 412.656 532.344 410.562ZM534.125 391.109L534.219 398.75H526.672C524.891 398.75 523.344 398.953 522.031 399.359C520.719 399.766 519.641 400.344 518.797 401.094C517.953 401.812 517.328 402.656 516.922 403.625C516.547 404.594 516.359 405.656 516.359 406.812C516.359 407.969 516.625 409.016 517.156 409.953C517.688 410.859 518.453 411.578 519.453 412.109C520.453 412.609 521.625 412.859 522.969 412.859C525 412.859 526.766 412.453 528.266 411.641C529.766 410.828 530.922 409.828 531.734 408.641C532.578 407.453 533.016 406.328 533.047 405.266L536.609 410.984C536.109 412.266 535.422 413.594 534.547 414.969C533.703 416.344 532.625 417.641 531.312 418.859C530 420.047 528.422 421.031 526.578 421.812C524.734 422.562 522.547 422.938 520.016 422.938C516.797 422.938 513.875 422.297 511.25 421.016C508.656 419.703 506.594 417.906 505.062 415.625C503.562 413.312 502.812 410.688 502.812 407.75C502.812 405.094 503.312 402.734 504.312 400.672C505.312 398.609 506.781 396.875 508.719 395.469C510.688 394.031 513.141 392.953 516.078 392.234C519.016 391.484 522.422 391.109 526.297 391.109H534.125ZM569.516 350V422H556.016V350H569.516ZM567.594 394.859H563.891C563.922 391.328 564.391 388.078 565.297 385.109C566.203 382.109 567.5 379.516 569.188 377.328C570.875 375.109 572.891 373.391 575.234 372.172C577.609 370.953 580.234 370.344 583.109 370.344C585.609 370.344 587.875 370.703 589.906 371.422C591.969 372.109 593.734 373.234 595.203 374.797C596.703 376.328 597.859 378.344 598.672 380.844C599.484 383.344 599.891 386.375 599.891 389.938V422H586.297V389.844C586.297 387.594 585.969 385.828 585.312 384.547C584.688 383.234 583.766 382.312 582.547 381.781C581.359 381.219 579.891 380.938 578.141 380.938C576.203 380.938 574.547 381.297 573.172 382.016C571.828 382.734 570.75 383.734 569.938 385.016C569.125 386.266 568.531 387.734 568.156 389.422C567.781 391.109 567.594 392.922 567.594 394.859ZM640.156 409.859V371.281H653.656V422H640.953L640.156 409.859ZM641.656 399.453L645.641 399.359C645.641 402.734 645.25 405.875 644.469 408.781C643.688 411.656 642.516 414.156 640.953 416.281C639.391 418.375 637.422 420.016 635.047 421.203C632.672 422.359 629.875 422.938 626.656 422.938C624.188 422.938 621.906 422.594 619.812 421.906C617.75 421.188 615.969 420.078 614.469 418.578C613 417.047 611.844 415.094 611 412.719C610.188 410.312 609.781 407.422 609.781 404.047V371.281H623.281V404.141C623.281 405.641 623.453 406.906 623.797 407.938C624.172 408.969 624.688 409.812 625.344 410.469C626 411.125 626.766 411.594 627.641 411.875C628.547 412.156 629.547 412.297 630.641 412.297C633.422 412.297 635.609 411.734 637.203 410.609C638.828 409.484 639.969 407.953 640.625 406.016C641.312 404.047 641.656 401.859 641.656 399.453ZM677.188 382.109V422H663.688V371.281H676.344L677.188 382.109ZM675.219 394.859H671.562C671.562 391.109 672.047 387.734 673.016 384.734C673.984 381.703 675.344 379.125 677.094 377C678.844 374.844 680.922 373.203 683.328 372.078C685.766 370.922 688.484 370.344 691.484 370.344C693.859 370.344 696.031 370.688 698 371.375C699.969 372.062 701.656 373.156 703.062 374.656C704.5 376.156 705.594 378.141 706.344 380.609C707.125 383.078 707.516 386.094 707.516 389.656V422H693.922V389.609C693.922 387.359 693.609 385.609 692.984 384.359C692.359 383.109 691.438 382.234 690.219 381.734C689.031 381.203 687.562 380.938 685.812 380.938C684 380.938 682.422 381.297 681.078 382.016C679.766 382.734 678.672 383.734 677.797 385.016C676.953 386.266 676.312 387.734 675.875 389.422C675.438 391.109 675.219 392.922 675.219 394.859ZM92.75 494.031V554.5H79.25V484.281H91.7656L92.75 494.031ZM124.859 509.078V510.062C124.859 513.75 124.422 517.172 123.547 520.328C122.703 523.484 121.453 526.234 119.797 528.578C118.141 530.891 116.078 532.703 113.609 534.016C111.172 535.297 108.359 535.938 105.172 535.938C102.078 535.938 99.3906 535.312 97.1094 534.062C94.8281 532.812 92.9062 531.062 91.3438 528.812C89.8125 526.531 88.5781 523.891 87.6406 520.891C86.7031 517.891 85.9844 514.672 85.4844 511.234V508.656C85.9844 504.969 86.7031 501.594 87.6406 498.531C88.5781 495.438 89.8125 492.766 91.3438 490.516C92.9062 488.234 94.8125 486.469 97.0625 485.219C99.3438 483.969 102.016 483.344 105.078 483.344C108.297 483.344 111.125 483.953 113.562 485.172C116.031 486.391 118.094 488.141 119.75 490.422C121.438 492.703 122.703 495.422 123.547 498.578C124.422 501.734 124.859 505.234 124.859 509.078ZM111.312 510.062V509.078C111.312 506.922 111.125 504.938 110.75 503.125C110.406 501.281 109.844 499.672 109.062 498.297C108.312 496.922 107.312 495.859 106.062 495.109C104.844 494.328 103.359 493.938 101.609 493.938C99.7656 493.938 98.1875 494.234 96.875 494.828C95.5938 495.422 94.5469 496.281 93.7344 497.406C92.9219 498.531 92.3125 499.875 91.9062 501.438C91.5 503 91.25 504.766 91.1562 506.734V513.25C91.3125 515.562 91.75 517.641 92.4688 519.484C93.1875 521.297 94.2969 522.734 95.7969 523.797C97.2969 524.859 99.2656 525.391 101.703 525.391C103.484 525.391 104.984 525 106.203 524.219C107.422 523.406 108.406 522.297 109.156 520.891C109.938 519.484 110.484 517.859 110.797 516.016C111.141 514.172 111.312 512.188 111.312 510.062ZM156.594 535.938C152.656 535.938 149.125 535.312 146 534.062C142.875 532.781 140.219 531.016 138.031 528.766C135.875 526.516 134.219 523.906 133.062 520.938C131.906 517.938 131.328 514.75 131.328 511.375V509.5C131.328 505.656 131.875 502.141 132.969 498.953C134.062 495.766 135.625 493 137.656 490.656C139.719 488.312 142.219 486.516 145.156 485.266C148.094 483.984 151.406 483.344 155.094 483.344C158.688 483.344 161.875 483.938 164.656 485.125C167.438 486.312 169.766 488 171.641 490.188C173.547 492.375 174.984 495 175.953 498.062C176.922 501.094 177.406 504.469 177.406 508.188V513.812H137.094V504.812H164.141V503.781C164.141 501.906 163.797 500.234 163.109 498.766C162.453 497.266 161.453 496.078 160.109 495.203C158.766 494.328 157.047 493.891 154.953 493.891C153.172 493.891 151.641 494.281 150.359 495.062C149.078 495.844 148.031 496.938 147.219 498.344C146.438 499.75 145.844 501.406 145.438 503.312C145.062 505.188 144.875 507.25 144.875 509.5V511.375C144.875 513.406 145.156 515.281 145.719 517C146.312 518.719 147.141 520.203 148.203 521.453C149.297 522.703 150.609 523.672 152.141 524.359C153.703 525.047 155.469 525.391 157.438 525.391C159.875 525.391 162.141 524.922 164.234 523.984C166.359 523.016 168.188 521.562 169.719 519.625L176.281 526.75C175.219 528.281 173.766 529.75 171.922 531.156C170.109 532.562 167.922 533.719 165.359 534.625C162.797 535.5 159.875 535.938 156.594 535.938ZM198.312 495.109V535H184.812V484.281H197.469L198.312 495.109ZM196.344 507.859H192.688C192.688 504.109 193.172 500.734 194.141 497.734C195.109 494.703 196.469 492.125 198.219 490C199.969 487.844 202.047 486.203 204.453 485.078C206.891 483.922 209.609 483.344 212.609 483.344C214.984 483.344 217.156 483.688 219.125 484.375C221.094 485.062 222.781 486.156 224.188 487.656C225.625 489.156 226.719 491.141 227.469 493.609C228.25 496.078 228.641 499.094 228.641 502.656V535H215.047V502.609C215.047 500.359 214.734 498.609 214.109 497.359C213.484 496.109 212.562 495.234 211.344 494.734C210.156 494.203 208.688 493.938 206.938 493.938C205.125 493.938 203.547 494.297 202.203 495.016C200.891 495.734 199.797 496.734 198.922 498.016C198.078 499.266 197.438 500.734 197 502.422C196.562 504.109 196.344 505.922 196.344 507.859ZM271.016 484.281H283.25V533.312C283.25 537.938 282.219 541.859 280.156 545.078C278.125 548.328 275.281 550.781 271.625 552.438C267.969 554.125 263.719 554.969 258.875 554.969C256.75 554.969 254.5 554.688 252.125 554.125C249.781 553.562 247.531 552.688 245.375 551.5C243.25 550.312 241.469 548.812 240.031 547L245.984 539.031C247.547 540.844 249.359 542.25 251.422 543.25C253.484 544.281 255.766 544.797 258.266 544.797C260.703 544.797 262.766 544.344 264.453 543.438C266.141 542.562 267.438 541.266 268.344 539.547C269.25 537.859 269.703 535.812 269.703 533.406V496L271.016 484.281ZM236.891 510.25V509.266C236.891 505.391 237.359 501.875 238.297 498.719C239.266 495.531 240.625 492.797 242.375 490.516C244.156 488.234 246.312 486.469 248.844 485.219C251.375 483.969 254.234 483.344 257.422 483.344C260.797 483.344 263.625 483.969 265.906 485.219C268.188 486.469 270.062 488.25 271.531 490.562C273 492.844 274.141 495.547 274.953 498.672C275.797 501.766 276.453 505.156 276.922 508.844V511C276.453 514.531 275.75 517.812 274.812 520.844C273.875 523.875 272.641 526.531 271.109 528.812C269.578 531.062 267.672 532.812 265.391 534.062C263.141 535.312 260.453 535.938 257.328 535.938C254.203 535.938 251.375 535.297 248.844 534.016C246.344 532.734 244.203 530.938 242.422 528.625C240.641 526.312 239.266 523.594 238.297 520.469C237.359 517.344 236.891 513.938 236.891 510.25ZM250.391 509.266V510.25C250.391 512.344 250.594 514.297 251 516.109C251.406 517.922 252.031 519.531 252.875 520.938C253.75 522.312 254.828 523.391 256.109 524.172C257.422 524.922 258.969 525.297 260.75 525.297C263.219 525.297 265.234 524.781 266.797 523.75C268.359 522.688 269.531 521.234 270.312 519.391C271.094 517.547 271.547 515.422 271.672 513.016V506.875C271.609 504.906 271.344 503.141 270.875 501.578C270.406 499.984 269.75 498.625 268.906 497.5C268.062 496.375 266.969 495.5 265.625 494.875C264.281 494.25 262.688 493.938 260.844 493.938C259.062 493.938 257.516 494.344 256.203 495.156C254.922 495.938 253.844 497.016 252.969 498.391C252.125 499.766 251.484 501.391 251.047 503.266C250.609 505.109 250.391 507.109 250.391 509.266ZM321.125 523.562V500.969C321.125 499.344 320.859 497.953 320.328 496.797C319.797 495.609 318.969 494.688 317.844 494.031C316.75 493.375 315.328 493.047 313.578 493.047C312.078 493.047 310.781 493.312 309.688 493.844C308.594 494.344 307.75 495.078 307.156 496.047C306.562 496.984 306.266 498.094 306.266 499.375H292.766C292.766 497.219 293.266 495.172 294.266 493.234C295.266 491.297 296.719 489.594 298.625 488.125C300.531 486.625 302.797 485.453 305.422 484.609C308.078 483.766 311.047 483.344 314.328 483.344C318.266 483.344 321.766 484 324.828 485.312C327.891 486.625 330.297 488.594 332.047 491.219C333.828 493.844 334.719 497.125 334.719 501.062V522.766C334.719 525.547 334.891 527.828 335.234 529.609C335.578 531.359 336.078 532.891 336.734 534.203V535H323.094C322.438 533.625 321.938 531.906 321.594 529.844C321.281 527.75 321.125 525.656 321.125 523.562ZM322.906 504.109L323 511.75H315.453C313.672 511.75 312.125 511.953 310.812 512.359C309.5 512.766 308.422 513.344 307.578 514.094C306.734 514.812 306.109 515.656 305.703 516.625C305.328 517.594 305.141 518.656 305.141 519.812C305.141 520.969 305.406 522.016 305.938 522.953C306.469 523.859 307.234 524.578 308.234 525.109C309.234 525.609 310.406 525.859 311.75 525.859C313.781 525.859 315.547 525.453 317.047 524.641C318.547 523.828 319.703 522.828 320.516 521.641C321.359 520.453 321.797 519.328 321.828 518.266L325.391 523.984C324.891 525.266 324.203 526.594 323.328 527.969C322.484 529.344 321.406 530.641 320.094 531.859C318.781 533.047 317.203 534.031 315.359 534.812C313.516 535.562 311.328 535.938 308.797 535.938C305.578 535.938 302.656 535.297 300.031 534.016C297.438 532.703 295.375 530.906 293.844 528.625C292.344 526.312 291.594 523.688 291.594 520.75C291.594 518.094 292.094 515.734 293.094 513.672C294.094 511.609 295.562 509.875 297.5 508.469C299.469 507.031 301.922 505.953 304.859 505.234C307.797 504.484 311.203 504.109 315.078 504.109H322.906ZM345.875 484.281H359.422V538.047C359.422 541.797 358.734 544.969 357.359 547.562C355.984 550.156 354 552.125 351.406 553.469C348.812 554.812 345.672 555.484 341.984 555.484C340.828 555.484 339.703 555.422 338.609 555.297C337.484 555.172 336.328 554.969 335.141 554.688L335.188 544.328C335.938 544.453 336.672 544.547 337.391 544.609C338.078 544.703 338.781 544.75 339.5 544.75C340.906 544.75 342.078 544.516 343.016 544.047C343.953 543.578 344.656 542.844 345.125 541.844C345.625 540.875 345.875 539.609 345.875 538.047V484.281ZM344.797 471.062C344.797 469.094 345.484 467.469 346.859 466.188C348.266 464.906 350.109 464.266 352.391 464.266C354.703 464.266 356.547 464.906 357.922 466.188C359.297 467.469 359.984 469.094 359.984 471.062C359.984 473.031 359.297 474.656 357.922 475.938C356.547 477.219 354.703 477.859 352.391 477.859C350.109 477.859 348.266 477.219 346.859 475.938C345.484 474.656 344.797 473.031 344.797 471.062ZM384.406 484.281V535H370.859V484.281H384.406ZM370.016 471.062C370.016 469.094 370.703 467.469 372.078 466.188C373.453 464.906 375.297 464.266 377.609 464.266C379.891 464.266 381.719 464.906 383.094 466.188C384.5 467.469 385.203 469.094 385.203 471.062C385.203 473.031 384.5 474.656 383.094 475.938C381.719 477.219 379.891 477.859 377.609 477.859C375.297 477.859 373.453 477.219 372.078 475.938C370.703 474.656 370.016 473.031 370.016 471.062ZM422.938 523.562V500.969C422.938 499.344 422.672 497.953 422.141 496.797C421.609 495.609 420.781 494.688 419.656 494.031C418.562 493.375 417.141 493.047 415.391 493.047C413.891 493.047 412.594 493.312 411.5 493.844C410.406 494.344 409.562 495.078 408.969 496.047C408.375 496.984 408.078 498.094 408.078 499.375H394.578C394.578 497.219 395.078 495.172 396.078 493.234C397.078 491.297 398.531 489.594 400.438 488.125C402.344 486.625 404.609 485.453 407.234 484.609C409.891 483.766 412.859 483.344 416.141 483.344C420.078 483.344 423.578 484 426.641 485.312C429.703 486.625 432.109 488.594 433.859 491.219C435.641 493.844 436.531 497.125 436.531 501.062V522.766C436.531 525.547 436.703 527.828 437.047 529.609C437.391 531.359 437.891 532.891 438.547 534.203V535H424.906C424.25 533.625 423.75 531.906 423.406 529.844C423.094 527.75 422.938 525.656 422.938 523.562ZM424.719 504.109L424.812 511.75H417.266C415.484 511.75 413.938 511.953 412.625 512.359C411.312 512.766 410.234 513.344 409.391 514.094C408.547 514.812 407.922 515.656 407.516 516.625C407.141 517.594 406.953 518.656 406.953 519.812C406.953 520.969 407.219 522.016 407.75 522.953C408.281 523.859 409.047 524.578 410.047 525.109C411.047 525.609 412.219 525.859 413.562 525.859C415.594 525.859 417.359 525.453 418.859 524.641C420.359 523.828 421.516 522.828 422.328 521.641C423.172 520.453 423.609 519.328 423.641 518.266L427.203 523.984C426.703 525.266 426.016 526.594 425.141 527.969C424.297 529.344 423.219 530.641 421.906 531.859C420.594 533.047 419.016 534.031 417.172 534.812C415.328 535.562 413.141 535.938 410.609 535.938C407.391 535.938 404.469 535.297 401.844 534.016C399.25 532.703 397.188 530.906 395.656 528.625C394.156 526.312 393.406 523.688 393.406 520.75C393.406 518.094 393.906 515.734 394.906 513.672C395.906 511.609 397.375 509.875 399.312 508.469C401.281 507.031 403.734 505.953 406.672 505.234C409.609 504.484 413.016 504.109 416.891 504.109H424.719ZM460.156 495.109V535H446.656V484.281H459.312L460.156 495.109ZM458.188 507.859H454.531C454.531 504.109 455.016 500.734 455.984 497.734C456.953 494.703 458.312 492.125 460.062 490C461.812 487.844 463.891 486.203 466.297 485.078C468.734 483.922 471.453 483.344 474.453 483.344C476.828 483.344 479 483.688 480.969 484.375C482.938 485.062 484.625 486.156 486.031 487.656C487.469 489.156 488.562 491.141 489.312 493.609C490.094 496.078 490.484 499.094 490.484 502.656V535H476.891V502.609C476.891 500.359 476.578 498.609 475.953 497.359C475.328 496.109 474.406 495.234 473.188 494.734C472 494.203 470.531 493.938 468.781 493.938C466.969 493.938 465.391 494.297 464.047 495.016C462.734 495.734 461.641 496.734 460.766 498.016C459.922 499.266 459.281 500.734 458.844 502.422C458.406 504.109 458.188 505.922 458.188 507.859ZM552.031 523.562V500.969C552.031 499.344 551.766 497.953 551.234 496.797C550.703 495.609 549.875 494.688 548.75 494.031C547.656 493.375 546.234 493.047 544.484 493.047C542.984 493.047 541.688 493.312 540.594 493.844C539.5 494.344 538.656 495.078 538.062 496.047C537.469 496.984 537.172 498.094 537.172 499.375H523.672C523.672 497.219 524.172 495.172 525.172 493.234C526.172 491.297 527.625 489.594 529.531 488.125C531.438 486.625 533.703 485.453 536.328 484.609C538.984 483.766 541.953 483.344 545.234 483.344C549.172 483.344 552.672 484 555.734 485.312C558.797 486.625 561.203 488.594 562.953 491.219C564.734 493.844 565.625 497.125 565.625 501.062V522.766C565.625 525.547 565.797 527.828 566.141 529.609C566.484 531.359 566.984 532.891 567.641 534.203V535H554C553.344 533.625 552.844 531.906 552.5 529.844C552.188 527.75 552.031 525.656 552.031 523.562ZM553.812 504.109L553.906 511.75H546.359C544.578 511.75 543.031 511.953 541.719 512.359C540.406 512.766 539.328 513.344 538.484 514.094C537.641 514.812 537.016 515.656 536.609 516.625C536.234 517.594 536.047 518.656 536.047 519.812C536.047 520.969 536.312 522.016 536.844 522.953C537.375 523.859 538.141 524.578 539.141 525.109C540.141 525.609 541.312 525.859 542.656 525.859C544.688 525.859 546.453 525.453 547.953 524.641C549.453 523.828 550.609 522.828 551.422 521.641C552.266 520.453 552.703 519.328 552.734 518.266L556.297 523.984C555.797 525.266 555.109 526.594 554.234 527.969C553.391 529.344 552.312 530.641 551 531.859C549.688 533.047 548.109 534.031 546.266 534.812C544.422 535.562 542.234 535.938 539.703 535.938C536.484 535.938 533.562 535.297 530.938 534.016C528.344 532.703 526.281 530.906 524.75 528.625C523.25 526.312 522.5 523.688 522.5 520.75C522.5 518.094 523 515.734 524 513.672C525 511.609 526.469 509.875 528.406 508.469C530.375 507.031 532.828 505.953 535.766 505.234C538.703 504.484 542.109 504.109 545.984 504.109H553.812ZM589.25 495.109V535H575.75V484.281H588.406L589.25 495.109ZM587.281 507.859H583.625C583.625 504.109 584.109 500.734 585.078 497.734C586.047 494.703 587.406 492.125 589.156 490C590.906 487.844 592.984 486.203 595.391 485.078C597.828 483.922 600.547 483.344 603.547 483.344C605.922 483.344 608.094 483.688 610.062 484.375C612.031 485.062 613.719 486.156 615.125 487.656C616.562 489.156 617.656 491.141 618.406 493.609C619.188 496.078 619.578 499.094 619.578 502.656V535H605.984V502.609C605.984 500.359 605.672 498.609 605.047 497.359C604.422 496.109 603.5 495.234 602.281 494.734C601.094 494.203 599.625 493.938 597.875 493.938C596.062 493.938 594.484 494.297 593.141 495.016C591.828 495.734 590.734 496.734 589.859 498.016C589.016 499.266 588.375 500.734 587.938 502.422C587.5 504.109 587.281 505.922 587.281 507.859ZM659.797 523.938V463H673.391V535H661.156L659.797 523.938ZM627.734 510.25V509.266C627.734 505.391 628.172 501.875 629.047 498.719C629.922 495.531 631.203 492.797 632.891 490.516C634.578 488.234 636.656 486.469 639.125 485.219C641.594 483.969 644.406 483.344 647.562 483.344C650.531 483.344 653.125 483.969 655.344 485.219C657.594 486.469 659.5 488.25 661.062 490.562C662.656 492.844 663.938 495.547 664.906 498.672C665.875 501.766 666.578 505.156 667.016 508.844V511C666.578 514.531 665.875 517.812 664.906 520.844C663.938 523.875 662.656 526.531 661.062 528.812C659.5 531.062 657.594 532.812 655.344 534.062C653.094 535.312 650.469 535.938 647.469 535.938C644.312 535.938 641.5 535.297 639.031 534.016C636.594 532.734 634.531 530.938 632.844 528.625C631.188 526.312 629.922 523.594 629.047 520.469C628.172 517.344 627.734 513.938 627.734 510.25ZM641.234 509.266V510.25C641.234 512.344 641.391 514.297 641.703 516.109C642.047 517.922 642.594 519.531 643.344 520.938C644.125 522.312 645.125 523.391 646.344 524.172C647.594 524.922 649.109 525.297 650.891 525.297C653.203 525.297 655.109 524.781 656.609 523.75C658.109 522.688 659.25 521.234 660.031 519.391C660.844 517.547 661.312 515.422 661.438 513.016V506.875C661.344 504.906 661.062 503.141 660.594 501.578C660.156 499.984 659.5 498.625 658.625 497.5C657.781 496.375 656.719 495.5 655.438 494.875C654.188 494.25 652.703 493.938 650.984 493.938C649.234 493.938 647.734 494.344 646.484 495.156C645.234 495.938 644.219 497.016 643.438 498.391C642.688 499.766 642.125 501.391 641.75 503.266C641.406 505.109 641.234 507.109 641.234 509.266ZM711.312 523.562V500.969C711.312 499.344 711.047 497.953 710.516 496.797C709.984 495.609 709.156 494.688 708.031 494.031C706.938 493.375 705.516 493.047 703.766 493.047C702.266 493.047 700.969 493.312 699.875 493.844C698.781 494.344 697.938 495.078 697.344 496.047C696.75 496.984 696.453 498.094 696.453 499.375H682.953C682.953 497.219 683.453 495.172 684.453 493.234C685.453 491.297 686.906 489.594 688.812 488.125C690.719 486.625 692.984 485.453 695.609 484.609C698.266 483.766 701.234 483.344 704.516 483.344C708.453 483.344 711.953 484 715.016 485.312C718.078 486.625 720.484 488.594 722.234 491.219C724.016 493.844 724.906 497.125 724.906 501.062V522.766C724.906 525.547 725.078 527.828 725.422 529.609C725.766 531.359 726.266 532.891 726.922 534.203V535H713.281C712.625 533.625 712.125 531.906 711.781 529.844C711.469 527.75 711.312 525.656 711.312 523.562ZM713.094 504.109L713.188 511.75H705.641C703.859 511.75 702.312 511.953 701 512.359C699.688 512.766 698.609 513.344 697.766 514.094C696.922 514.812 696.297 515.656 695.891 516.625C695.516 517.594 695.328 518.656 695.328 519.812C695.328 520.969 695.594 522.016 696.125 522.953C696.656 523.859 697.422 524.578 698.422 525.109C699.422 525.609 700.594 525.859 701.938 525.859C703.969 525.859 705.734 525.453 707.234 524.641C708.734 523.828 709.891 522.828 710.703 521.641C711.547 520.453 711.984 519.328 712.016 518.266L715.578 523.984C715.078 525.266 714.391 526.594 713.516 527.969C712.672 529.344 711.594 530.641 710.281 531.859C708.969 533.047 707.391 534.031 705.547 534.812C703.703 535.562 701.516 535.938 698.984 535.938C695.766 535.938 692.844 535.297 690.219 534.016C687.625 532.703 685.562 530.906 684.031 528.625C682.531 526.312 681.781 523.688 681.781 520.75C681.781 518.094 682.281 515.734 683.281 513.672C684.281 511.609 685.75 509.875 687.688 508.469C689.656 507.031 692.109 505.953 695.047 505.234C697.984 504.484 701.391 504.109 705.266 504.109H713.094Z" fill="#FB0088"/>
<g clip-path="url(#clip1_77_14)">
<path d="M1267.96 784.366C1272.08 792.341 1271.31 800.931 1266.23 803.553C1261.16 806.174 1253.7 801.835 1249.58 793.86C1247.78 790.369 1246.92 786.76 1246.94 783.585L1229.9 749.574L1246.04 741.921L1261.12 776.262C1263.72 778.081 1266.16 780.875 1267.96 784.366Z" fill="#FFB6B6"/>
<path d="M1141.2 1091.25L1155.73 1091.24L1162.64 1035.23L1141.2 1035.23L1141.2 1091.25Z" fill="#FFB6B6"/>
<path d="M1190.96 1090.92C1191.41 1091.68 1191.65 1094.14 1191.65 1095.02C1191.65 1097.74 1189.45 1099.95 1186.72 1099.95H1141.75C1139.89 1099.95 1138.38 1098.44 1138.38 1096.59V1094.71C1138.38 1094.71 1136.16 1089.09 1140.74 1082.15C1140.74 1082.15 1146.43 1087.58 1154.94 1079.08L1157.45 1074.53L1175.61 1087.81L1185.67 1089.05C1187.88 1089.32 1189.83 1089.01 1190.96 1090.92Z" fill="#2F2E41"/>
<path d="M1073.07 1091.25L1087.59 1091.24L1094.5 1035.23L1073.07 1035.23L1073.07 1091.25Z" fill="#FFB6B6"/>
<path d="M1122.83 1090.92C1123.28 1091.68 1123.52 1094.14 1123.52 1095.02C1123.52 1097.74 1121.31 1099.95 1118.59 1099.95H1073.61C1071.76 1099.95 1070.25 1098.44 1070.25 1096.59V1094.71C1070.25 1094.71 1068.03 1089.09 1072.61 1082.15C1072.61 1082.15 1078.3 1087.58 1086.81 1079.08L1089.32 1074.53L1107.47 1087.81L1117.54 1089.05C1119.74 1089.32 1121.69 1089.01 1122.83 1090.92Z" fill="#2F2E41"/>
<path d="M1052.51 760.746L1046.39 798.133L1065.43 919.131L1070.19 1065.28H1095.89L1108.94 927.288L1107.58 836.2L1138.17 1066.64H1164.87L1167.4 777.74L1052.51 760.746Z" fill="#2F2E41"/>
<path d="M1084.46 567.015H1132.57L1174.2 591.486C1167.72 589.84 1162.71 649.937 1162.54 703.039C1162.53 706.568 1159.04 710.625 1159.07 714.071C1159.1 717.041 1162.65 719.413 1162.71 722.294C1162.77 724.987 1162.84 727.634 1162.93 730.227C1163 732.38 1158.97 735.232 1159.07 737.303C1159.19 739.949 1163.44 741.786 1163.6 744.276C1164.57 759.584 1166.24 771.711 1168.76 777.741C1168.76 777.741 1061.35 807.65 1053.19 761.426C1053.19 761.426 1053.66 744.812 1053.59 721.869C1053.59 719.833 1051.85 717.986 1051.84 715.858C1051.83 714.276 1053.54 712.432 1053.52 710.805C1053.51 709.468 1051.86 708.286 1051.84 706.923C1051.83 706.111 1053.45 705.124 1053.44 704.303C1052.79 660.675 1049.86 605.692 1039.6 591.486L1084.46 567.015Z" fill="#FF8398"/>
<path d="M1132.05 567.015C1132.05 567.015 1163.22 578.343 1173.12 587.368C1178.37 592.163 1213.63 682.574 1213.63 682.574L1262.59 767.842L1237.14 777.51L1185.07 698.888L1161.96 647.226L1132.05 567.015Z" fill="#FF8398"/>
<path d="M1067.39 787.592C1071.93 795.332 1071.63 803.952 1066.7 806.845C1061.78 809.738 1054.1 805.81 1049.55 798.07C1047.56 794.682 1046.5 791.126 1046.35 787.955L1027.49 754.918L1043.19 746.401L1060.11 779.872C1062.81 781.547 1065.4 784.205 1067.39 787.592Z" fill="#FFB6B6"/>
<path d="M1077.67 609.16L1064.07 577.891C1064.07 577.891 1032.12 588.087 1032.12 603.042C1032.12 603.042 1013.08 717.242 1015.8 745.792L1033.48 777.061L1058.63 757.348L1043 721.32L1077.67 609.16Z" fill="#FF8398"/>
<path d="M1049.7 812.307L1065.74 780.46L1084.46 806.29L1067.61 822.605L1049.7 812.307Z" fill="#2F2E41"/>
<path d="M1108.07 558.032C1125.25 558.032 1139.18 544.102 1139.18 526.918C1139.18 509.734 1125.25 495.804 1108.07 495.804C1090.88 495.804 1076.95 509.734 1076.95 526.918C1076.95 544.102 1090.88 558.032 1108.07 558.032Z" fill="#FFB6B6"/>
<path d="M1132.33 492.161C1126.92 490.43 1124.36 483.998 1119.42 481.21C1113.95 478.127 1107.4 476.203 1101.37 477.947C1097.67 479.017 1094.45 481.383 1090.74 482.444C1090.09 482.63 1089.41 482.758 1088.72 482.824C1084.74 483.203 1081.32 485.592 1079.33 489.062L1079.28 489.152C1078.11 491.152 1076.45 492.808 1074.97 494.594C1069.59 501.112 1066.68 509.584 1066.74 518.035C1066.81 527.12 1070.3 536.139 1076.38 542.894L1077.93 542.179C1081.68 545.418 1085.43 548.657 1089.18 551.896C1087.14 544.533 1085.08 536.911 1086.16 529.347C1087.24 521.783 1092.33 514.236 1099.83 512.776C1102.66 512.223 1105.66 512.557 1108.41 511.68C1111.17 510.803 1113.7 507.972 1112.76 505.24C1114.46 509.749 1120.82 509.482 1125.2 511.499C1135 516.014 1131.42 509.037 1139.92 515.674C1142.8 499.75 1153.8 499.039 1132.33 492.161Z" fill="#2F2E41"/>
<path d="M990 1098.87C990 1100.05 990.947 1101 992.127 1101H1712.87C1714.05 1101 1715 1100.05 1715 1098.87C1715 1097.69 1714.05 1096.75 1712.87 1096.75H992.127C990.947 1096.75 990 1097.69 990 1098.87Z" fill="#CCCCCC"/>
<path d="M1618.59 1101H1303.28C1264.84 1101 1233.56 1069.72 1233.56 1031.28V353.719C1233.56 315.276 1264.84 284 1303.28 284H1618.59C1657.03 284 1688.31 315.276 1688.31 353.719V1031.28C1688.31 1069.72 1657.03 1101 1618.59 1101Z" fill="#3F3D56"/>
<path d="M1688.31 533.229C1686.68 533.229 1685.36 534.552 1685.36 536.179V630.561C1685.36 632.188 1686.68 633.511 1688.31 633.511C1689.94 633.511 1691.26 632.188 1691.26 630.561V536.179C1691.26 534.552 1689.94 533.229 1688.31 533.229Z" fill="#3F3D56"/>
<path d="M1681.67 353.72V1031.27C1681.67 1064.73 1655.63 1092.1 1622.69 1094.22H1622.68C1622.19 1094.25 1621.71 1094.28 1621.2 1094.3C1620.33 1094.34 1619.46 1094.36 1618.58 1094.36C1618.58 1094.36 1615.33 1094.12 1609.41 1093.68C1603.42 1093.24 1594.7 1092.57 1583.83 1091.7C1580.57 1091.45 1577.14 1091.17 1573.51 1090.88C1566.28 1090.29 1558.35 1089.64 1549.84 1088.9C1546.45 1088.62 1542.94 1088.31 1539.35 1088C1521.03 1086.42 1500.52 1084.58 1478.88 1082.49C1475.23 1082.15 1471.54 1081.79 1467.82 1081.42C1466.85 1081.32 1465.86 1081.23 1464.87 1081.13C1449.45 1079.61 1240.2 1039.17 1240.2 1031.27V353.72C1240.2 318.872 1268.44 290.631 1303.29 290.631H1340.96C1346.98 290.631 1351.81 295.32 1352.33 301.323C1352.37 301.721 1352.42 302.119 1352.49 302.517C1353.58 308.549 1359.11 312.752 1365.25 312.752H1556.62C1562.76 312.752 1568.29 308.549 1569.38 302.517C1569.45 302.119 1569.5 301.721 1569.54 301.323C1570.06 295.32 1574.9 290.631 1580.91 290.631H1618.58C1653.43 290.631 1681.67 318.872 1681.67 353.72Z" fill="white"/>
<path d="M1232.09 462.442C1230.46 462.442 1229.14 463.765 1229.14 465.392V488.987C1229.14 490.614 1230.46 491.937 1232.09 491.937C1233.71 491.937 1235.04 490.614 1235.04 488.987V465.392C1235.04 463.765 1233.71 462.442 1232.09 462.442Z" fill="#3F3D56"/>
<path d="M1232.09 533.229C1230.46 533.229 1229.14 534.552 1229.14 536.179V581.895C1229.14 583.522 1230.46 584.845 1232.09 584.845C1233.71 584.845 1235.04 583.522 1235.04 581.895V536.179C1235.04 534.552 1233.71 533.229 1232.09 533.229Z" fill="#3F3D56"/>
<path d="M1232.09 598.117C1230.46 598.117 1229.14 599.44 1229.14 601.067V646.783C1229.14 648.41 1230.46 649.733 1232.09 649.733C1233.71 649.733 1235.04 648.41 1235.04 646.783V601.067C1235.04 599.44 1233.71 598.117 1232.09 598.117Z" fill="#3F3D56"/>
<path d="M1339.93 300.96H1283.52C1283.22 300.96 1282.97 301.208 1282.97 301.514V307.779C1282.97 308.085 1283.22 308.333 1283.52 308.333H1339.93C1340.24 308.333 1340.49 308.085 1340.49 307.779V301.514C1340.49 301.208 1340.24 300.96 1339.93 300.96Z" fill="#E6E6E6"/>
<path d="M1590.23 308.333C1593.49 308.333 1596.13 305.692 1596.13 302.434C1596.13 299.176 1593.49 296.535 1590.23 296.535C1586.97 296.535 1584.33 299.176 1584.33 302.434C1584.33 305.692 1586.97 308.333 1590.23 308.333Z" fill="#E6E6E6"/>
<path d="M1606.46 308.333C1609.71 308.333 1612.36 305.692 1612.36 302.434C1612.36 299.176 1609.71 296.535 1606.46 296.535C1603.2 296.535 1600.56 299.176 1600.56 302.434C1600.56 305.692 1603.2 308.333 1606.46 308.333Z" fill="#E6E6E6"/>
<path d="M1622.68 308.333C1625.94 308.333 1628.58 305.692 1628.58 302.434C1628.58 299.176 1625.94 296.535 1622.68 296.535C1619.42 296.535 1616.78 299.176 1616.78 302.434C1616.78 305.692 1619.42 308.333 1622.68 308.333Z" fill="#E6E6E6"/>
<path d="M1628.11 1019.66H1535.17C1531.23 1019.66 1528.03 1016.45 1528.03 1012.51C1528.03 1008.57 1531.23 1005.36 1535.17 1005.36H1628.11C1632.05 1005.36 1635.26 1008.57 1635.26 1012.51C1635.26 1016.45 1632.05 1019.66 1628.11 1019.66Z" fill="#E6E6E6"/>
<path d="M1379.69 1019.66H1286.76C1282.82 1019.66 1279.61 1016.45 1279.61 1012.51C1279.61 1008.57 1282.82 1005.36 1286.76 1005.36H1379.69C1383.63 1005.36 1386.84 1008.57 1386.84 1012.51C1386.84 1016.45 1383.63 1019.66 1379.69 1019.66Z" fill="#E6E6E6"/>
</g>
<path d="M759 487.043V351.734L1033.39 542.204L759 487.043Z" fill="white" stroke="#3F3D56" stroke-width="6"/>
<rect x="737" y="325" width="34" height="223" fill="white"/>
<defs>
<clipPath id="clip0_77_14">
<rect width="1197" height="1175" fill="white"/>
</clipPath>
<clipPath id="clip1_77_14">
<rect width="725" height="817" fill="white" transform="translate(990 284)"/>
</clipPath>
</defs>
</svg>
