<svg width="770" height="111" viewBox="0 0 770 111" fill="none" xmlns="http://www.w3.org/2000/svg">
<path d="M145.861 29.1133C146.946 28.737 148.152 28.5488 149.48 28.5488C150.831 28.5488 152.181 28.6484 153.531 28.8477C154.904 29.0469 156.342 29.3678 157.848 29.8105C159.353 30.2533 160.858 30.8177 162.363 31.5039C163.868 32.1901 165.219 33.0091 166.414 33.9609C169.092 36.0859 170.432 38.6094 170.432 41.5312C170.432 44.9844 168.605 48.7695 164.953 52.8867C159.729 58.7747 152.247 64.0208 142.508 68.625C136.376 71.5026 130.223 73.5391 124.047 74.7344C120.992 75.3099 118.015 75.5977 115.115 75.5977C112.238 75.5977 109.747 75.2103 107.645 74.4355C105.564 73.6387 103.859 72.6536 102.531 71.4805C101.225 70.3073 100.273 69.0456 99.6758 67.6953C99.0781 66.3451 98.7793 64.9173 98.7793 63.4121C98.7793 61.9069 99.222 60.1471 100.107 58.1328C101.015 56.1185 102.177 54.1263 103.594 52.1562C105.033 50.1641 106.637 48.2383 108.408 46.3789C110.201 44.4974 111.983 42.7598 113.754 41.166C116.809 38.4434 119.742 36.1081 122.553 34.1602C125.386 32.1901 127.777 30.6406 129.725 29.5117C131.673 28.3828 133.299 27.5195 134.605 26.9219C136.819 25.8815 138.169 25.3613 138.656 25.3613C139.143 25.3613 139.686 25.5052 140.283 25.793C140.903 26.0807 141.578 26.4238 142.309 26.8223C144.124 27.8405 145.308 28.6042 145.861 29.1133ZM114.949 65.8359C115.348 65.8581 116.089 65.8691 117.174 65.8691C118.258 65.8691 119.83 65.5924 121.889 65.0391C123.947 64.4857 126.05 63.7441 128.197 62.8145C130.344 61.8626 132.492 60.7669 134.639 59.5273C136.808 58.2656 138.878 56.9486 140.848 55.5762C142.818 54.2038 144.655 52.8092 146.359 51.3926C148.086 49.9538 149.58 48.5703 150.842 47.2422C153.542 44.431 154.893 42.2949 154.893 40.834C154.893 39.3288 153.985 38.2109 152.17 37.4805C150.952 36.9714 149.646 36.7168 148.252 36.7168C145.928 36.7168 144.013 36.916 142.508 37.3145C136.044 40.347 129.747 44.3092 123.615 49.2012C119.232 52.6986 116.1 56.0078 114.219 59.1289C113.245 60.7448 112.758 62.25 112.758 63.6445C112.758 65.0169 113.488 65.7474 114.949 65.8359ZM232.92 56.5723C231.68 56.2624 229.035 56.1074 224.984 56.1074C221.686 62.9694 219.373 69.0898 218.045 74.4688C217.292 77.3906 214.448 78.8516 209.512 78.8516C205.439 78.8516 202.849 77.8997 201.742 75.9961C201.344 75.3542 201.189 74.7344 201.277 74.1367C201.366 73.5169 201.654 72.7201 202.141 71.7461C202.628 70.75 203.292 69.5215 204.133 68.0605L207.055 63.0801L210.641 57.2031L197.26 58.2988C194.161 63.6556 190.73 68.7025 186.967 73.4395C185.13 75.6751 182.429 76.793 178.865 76.793C176.165 76.793 173.785 76.2174 171.727 75.0664C170.487 74.3802 169.889 73.7604 169.934 73.207C169.956 72.4323 170.398 71.6576 171.262 70.8828C174.803 67.7839 178.334 63.9987 181.854 59.5273L176.773 59.9258C174.228 59.9922 172.634 59.4388 171.992 58.2656C171.483 57.3138 171.229 56.2292 171.229 55.0117C171.229 54.1706 171.428 53.4733 171.826 52.9199C172.225 52.3665 172.667 52.0234 173.154 51.8906C173.641 51.7578 174.206 51.6803 174.848 51.6582L188.66 49.9648C194.128 41.1549 197.215 36.2188 197.924 35.1562C198.632 34.0716 199.329 33.1641 200.016 32.4336C201.72 30.707 203.458 29.8438 205.229 29.8438C206.468 29.8438 207.63 30.3418 208.715 31.3379C209.202 31.7806 209.445 32.2897 209.445 32.8652C209.445 33.9941 208.826 35.8314 207.586 38.377L202.738 48.2383L217.613 46.3789C221.775 40.3581 224.641 36.3405 226.213 34.3262C229.423 30.2311 231.658 27.8737 232.92 27.2539C235.311 26.0586 237.048 25.4609 238.133 25.4609C239.217 25.4609 239.893 25.7598 240.158 26.3574C240.424 26.9551 240.501 27.5749 240.391 28.2168C240.302 28.8587 239.981 29.6777 239.428 30.6738C238.896 31.6478 238.199 32.8542 237.336 34.293C237.336 34.293 235.133 37.9674 230.729 45.3164C232.189 45.4492 233.197 45.8255 233.75 46.4453C234.724 47.5078 235.211 49.1901 235.211 51.4922C235.211 53.1523 235.001 54.7018 234.58 56.1406C234.403 56.4284 233.85 56.5723 232.92 56.5723ZM326.785 66.9316L326.852 64.6738C326.896 63.2572 327.029 61.7077 327.25 60.0254L327.781 56.1074C327.892 55.1777 328.003 54.3366 328.113 53.584C326.01 55.8861 324.317 57.679 323.033 58.9629L319.215 62.6816C310.671 70.6725 305.579 74.668 303.941 74.668C301.529 74.668 298.994 74.1478 296.338 73.1074C294.899 72.5319 294.08 71.9342 293.881 71.3145C293.571 70.5397 293.416 69.4883 293.416 68.1602C293.416 66.8099 293.46 65.5703 293.549 64.4414C293.637 63.3125 293.748 62.1947 293.881 61.0879C294.014 59.959 294.146 58.8854 294.279 57.8672C294.434 56.8268 294.556 55.9193 294.645 55.1445C294.866 53.3958 294.91 52.5215 294.777 52.5215L282.426 67.6953C276.604 74.5352 273.295 78.3203 272.498 79.0508C270.794 80.6003 268.912 81.375 266.854 81.375C265.835 81.375 264.994 81.1204 264.33 80.6113C263.666 80.1022 263.334 79.4714 263.334 78.7188C263.334 77.2135 263.965 75.6419 265.227 74.0039L294.711 36.5176L298.164 32.3672C302.281 27.5195 304.982 25.0957 306.266 25.0957C308.059 25.0957 309.763 25.5495 311.379 26.457C312.818 27.2539 313.637 28.0286 313.836 28.7812C313.924 29.069 313.736 30.4082 313.271 32.7988L312.109 39.0742C310.803 46.069 310.15 50.5846 310.15 52.6211C310.15 54.6354 310.383 55.6426 310.848 55.6426C312.353 55.6426 315.253 53.1745 319.547 48.2383L330.305 35.3555C332.673 32.6328 334.245 31.0833 335.02 30.707C335.241 30.5964 335.562 30.541 335.982 30.541C336.403 30.541 336.868 30.5964 337.377 30.707C337.908 30.8177 338.439 30.9616 338.971 31.1387C339.524 31.3158 340.055 31.526 340.564 31.7695C341.074 32.013 341.527 32.2676 341.926 32.5332C342.789 33.1087 343.21 33.5846 343.188 33.9609C343.188 34.3151 343.099 35.1009 342.922 36.3184C342.745 37.5137 342.523 38.9746 342.258 40.7012C340.421 52.1452 339.458 58.7858 339.369 60.623C339.303 62.4603 339.491 63.6113 339.934 64.0762C340.398 64.541 341.074 64.7734 341.959 64.7734C343.575 64.7734 345.921 63.8105 348.998 61.8848C351.079 60.5788 352.794 59.9258 354.145 59.9258C355.517 59.9258 356.203 60.5788 356.203 61.8848C356.203 63.235 355.473 64.873 354.012 66.7988C351.909 69.5879 348.766 72.1113 344.582 74.3691C341.062 76.2507 337.72 77.1914 334.555 77.1914C329.375 77.1914 326.785 73.7715 326.785 66.9316ZM369.518 71.5469C368.256 71.5469 367.049 71.2702 365.898 70.7168C364.747 70.1413 363.762 69.3776 362.943 68.4258C360.354 65.4596 359.889 61.7409 361.549 57.2695C363.165 52.9974 366.142 47.8841 370.48 41.9297C372.716 38.875 374.708 36.4069 376.457 34.5254C379.357 31.4043 381.15 29.8438 381.836 29.8438C382.544 29.8438 383.319 30.0651 384.16 30.5078C385.023 30.9505 385.831 31.5039 386.584 32.168C388.311 33.7617 389.13 35.2891 389.041 36.75C388.975 37.9232 387.879 39.9043 385.754 42.6934L382.832 46.4453C376.501 54.3255 375.051 58.2656 378.482 58.2656C379.235 58.2656 380.01 58.0775 380.807 57.7012C389.484 53.7389 397.552 48.0169 405.012 40.5352L409.959 35.4219C411.376 33.9388 412.549 32.7546 413.479 31.8691C414.43 30.9616 415.183 30.5078 415.736 30.5078C416.29 30.5078 416.876 30.696 417.496 31.0723C418.116 31.4486 418.658 31.9023 419.123 32.4336C420.163 33.5846 420.661 34.6029 420.617 35.4883C420.219 40.9779 416.71 50.2747 410.092 63.3789C408.719 66.1237 407.281 68.8464 405.775 71.5469C401.813 78.4089 399.024 83.0573 397.408 85.4922C395.792 87.9492 394.398 89.9414 393.225 91.4688C390.701 94.7227 388.952 96.3496 387.979 96.3496C386.894 96.3496 385.057 95.276 382.467 93.1289C379.722 90.8932 378.35 89.1003 378.35 87.75C378.35 87.3294 379.146 86.1009 380.74 84.0645L389.373 73.207C393.778 67.5404 396.777 63.5781 398.371 61.3203C401.846 56.362 404.403 52.2005 406.041 48.8359C400.441 53.4844 396.611 56.5944 394.553 58.166L388.842 62.3828C380.187 68.4922 373.745 71.5469 369.518 71.5469ZM455.779 73.9043C454.938 73.1074 454.307 72.2109 453.887 71.2148C453.466 70.1966 453.256 69.3223 453.256 68.5918C453.256 67.8392 453.455 66.9538 453.854 65.9355C454.252 64.9173 454.794 63.7441 455.48 62.416C456.167 61.0658 456.964 59.6048 457.871 58.0332C458.779 56.4395 459.753 54.8346 460.793 53.2188L463.914 48.4043C464.999 46.8327 466.061 45.3717 467.102 44.0215C462.674 45.4382 459.387 46.8216 457.24 48.1719C455.115 49.5 453.477 50.474 452.326 51.0938C451.175 51.7135 450.223 52.0234 449.471 52.0234C448.231 52.0234 447.611 51.2487 447.611 49.6992C447.611 47.4857 448.762 44.763 451.064 41.5312C453.455 38.1888 455.923 36.1191 458.469 35.3223C461.036 34.5254 463.892 33.7728 467.035 33.0645C470.201 32.334 473.488 31.7031 476.896 31.1719C484.29 30.0208 491.163 29.4453 497.516 29.4453C504.776 29.4453 509.413 30.1315 511.428 31.5039C513.221 32.7214 514.438 34.4036 515.08 36.5508C515.39 37.5911 515.545 38.709 515.545 39.9043C515.545 41.0996 514.958 42.3503 513.785 43.6562C512.634 44.9401 511.096 46.1576 509.17 47.3086C505.54 49.5221 500.781 51.5143 494.893 53.2852C498.235 53.9271 500.548 54.6686 501.832 55.5098C503.138 56.3288 504.057 57.1589 504.588 58C505.119 58.819 505.385 59.8704 505.385 61.1543C505.385 62.416 504.831 63.722 503.725 65.0723C502.618 66.4225 501.079 67.6842 499.109 68.8574C497.161 70.0306 494.848 71.0931 492.17 72.0449C489.514 72.9967 486.625 73.8047 483.504 74.4688C476.996 75.8854 470.223 76.5938 463.184 76.5938C460.129 76.5938 457.661 75.6973 455.779 73.9043ZM474.273 48.9688C470.953 54.724 469.293 58.7083 469.293 60.9219C469.293 61.9401 469.824 62.8919 470.887 63.7773C471.883 64.6185 472.923 65.0391 474.008 65.0391C475.092 65.0391 476.288 64.9948 477.594 64.9062C478.9 64.7956 480.239 64.6517 481.611 64.4746C482.984 64.2975 484.334 64.0872 485.662 63.8438C486.99 63.6003 488.174 63.3236 489.215 63.0137C491.517 62.3275 492.668 61.6302 492.668 60.9219C492.668 59.638 490.886 58.5755 487.322 57.7344C484.423 57.0703 481.656 56.7383 479.021 56.7383C478.003 56.7383 477.273 56.5391 476.83 56.1406C476.387 55.7201 476.166 55.2441 476.166 54.7129C476.166 54.1595 476.432 53.5951 476.963 53.0195C477.516 52.4219 478.258 51.9349 479.188 51.5586C486.714 49.6771 493 47.5632 498.047 45.2168C500.526 44.0658 501.766 43.1914 501.766 42.5938C501.766 41.7305 501.511 41.0332 501.002 40.502C500.094 39.5501 499.087 39.0742 497.98 39.0742C496.874 39.0742 495.612 39.1185 494.195 39.207C492.779 39.2956 491.251 39.4284 489.613 39.6055C486.005 39.9596 482.43 40.4688 478.889 41.1328C478.38 42.1732 477.704 43.3464 476.863 44.6523L474.273 48.9688ZM575.477 66.9316L575.543 64.6738C575.587 63.2572 575.72 61.7077 575.941 60.0254L576.473 56.1074C576.583 55.1777 576.694 54.3366 576.805 53.584C574.702 55.8861 573.008 57.679 571.725 58.9629L567.906 62.6816C559.362 70.6725 554.271 74.668 552.633 74.668C550.22 74.668 547.686 74.1478 545.029 73.1074C543.59 72.5319 542.771 71.9342 542.572 71.3145C542.262 70.5397 542.107 69.4883 542.107 68.1602C542.107 66.8099 542.152 65.5703 542.24 64.4414C542.329 63.3125 542.439 62.1947 542.572 61.0879C542.705 59.959 542.838 58.8854 542.971 57.8672C543.126 56.8268 543.247 55.9193 543.336 55.1445C543.557 53.3958 543.602 52.5215 543.469 52.5215L531.117 67.6953C525.296 74.5352 521.986 78.3203 521.189 79.0508C519.485 80.6003 517.604 81.375 515.545 81.375C514.527 81.375 513.686 81.1204 513.021 80.6113C512.357 80.1022 512.025 79.4714 512.025 78.7188C512.025 77.2135 512.656 75.6419 513.918 74.0039L543.402 36.5176L546.855 32.3672C550.973 27.5195 553.673 25.0957 554.957 25.0957C556.75 25.0957 558.454 25.5495 560.07 26.457C561.509 27.2539 562.328 28.0286 562.527 28.7812C562.616 29.069 562.428 30.4082 561.963 32.7988L560.801 39.0742C559.495 46.069 558.842 50.5846 558.842 52.6211C558.842 54.6354 559.074 55.6426 559.539 55.6426C561.044 55.6426 563.944 53.1745 568.238 48.2383L578.996 35.3555C581.365 32.6328 582.936 31.0833 583.711 30.707C583.932 30.5964 584.253 30.541 584.674 30.541C585.094 30.541 585.559 30.5964 586.068 30.707C586.6 30.8177 587.131 30.9616 587.662 31.1387C588.215 31.3158 588.747 31.526 589.256 31.7695C589.765 32.013 590.219 32.2676 590.617 32.5332C591.48 33.1087 591.901 33.5846 591.879 33.9609C591.879 34.3151 591.79 35.1009 591.613 36.3184C591.436 37.5137 591.215 38.9746 590.949 40.7012C589.112 52.1452 588.149 58.7858 588.061 60.623C587.994 62.4603 588.182 63.6113 588.625 64.0762C589.09 64.541 589.765 64.7734 590.65 64.7734C592.266 64.7734 594.613 63.8105 597.689 61.8848C599.77 60.5788 601.486 59.9258 602.836 59.9258C604.208 59.9258 604.895 60.5788 604.895 61.8848C604.895 63.235 604.164 64.873 602.703 66.7988C600.6 69.5879 597.457 72.1113 593.273 74.3691C589.754 76.2507 586.411 77.1914 583.246 77.1914C578.066 77.1914 575.477 73.7715 575.477 66.9316ZM646.93 61.0547C646.62 61.099 646.365 61.11 646.166 61.0879C645.967 61.0658 645.779 61.0104 645.602 60.9219C645.181 60.7448 644.971 60.4681 644.971 60.0918C644.971 59.6934 645.037 59.3392 645.17 59.0293L653.139 41.2656L655.164 37.082C656.581 34.2708 657.488 32.6107 657.887 32.1016C658.307 31.5924 658.628 31.2161 658.85 30.9727C659.093 30.7292 659.37 30.5078 659.68 30.3086C660.388 29.888 661.118 29.6777 661.871 29.6777C662.624 29.6777 663.465 29.7773 664.395 29.9766C665.324 30.1536 666.232 30.3971 667.117 30.707C669.242 31.5039 670.305 32.3451 670.305 33.2305C670.305 34.6914 668.711 38.3548 665.523 44.2207C662.181 50.3079 659.303 54.4362 656.891 56.6055C654.257 58.974 650.936 60.457 646.93 61.0547ZM639.891 71.8789C639.891 71.3255 639.968 70.8496 640.123 70.4512C640.278 70.0527 640.521 69.599 640.854 69.0898C641.208 68.5586 641.65 68.0052 642.182 67.4297C642.735 66.832 643.41 66.3008 644.207 65.8359C646.044 64.707 648.125 64.1426 650.449 64.1426C653.105 64.1426 654.932 64.707 655.928 65.8359C656.304 66.2786 656.492 66.9206 656.492 67.7617C656.492 68.5807 656.149 69.4772 655.463 70.4512C654.777 71.403 653.891 72.2552 652.807 73.0078C650.372 74.6901 647.859 75.5312 645.27 75.5312C643.1 75.5312 641.562 74.9115 640.654 73.6719C640.145 73.0078 639.891 72.4102 639.891 71.8789ZM692.086 61.0547C691.776 61.099 691.521 61.11 691.322 61.0879C691.123 61.0658 690.935 61.0104 690.758 60.9219C690.337 60.7448 690.127 60.4681 690.127 60.0918C690.127 59.6934 690.193 59.3392 690.326 59.0293L698.295 41.2656L700.32 37.082C701.737 34.2708 702.645 32.6107 703.043 32.1016C703.464 31.5924 703.785 31.2161 704.006 30.9727C704.249 30.7292 704.526 30.5078 704.836 30.3086C705.544 29.888 706.275 29.6777 707.027 29.6777C707.78 29.6777 708.621 29.7773 709.551 29.9766C710.48 30.1536 711.388 30.3971 712.273 30.707C714.398 31.5039 715.461 32.3451 715.461 33.2305C715.461 34.6914 713.867 38.3548 710.68 44.2207C707.337 50.3079 704.46 54.4362 702.047 56.6055C699.413 58.974 696.092 60.457 692.086 61.0547ZM685.047 71.8789C685.047 71.3255 685.124 70.8496 685.279 70.4512C685.434 70.0527 685.678 69.599 686.01 69.0898C686.364 68.5586 686.807 68.0052 687.338 67.4297C687.891 66.832 688.566 66.3008 689.363 65.8359C691.201 64.707 693.281 64.1426 695.605 64.1426C698.262 64.1426 700.088 64.707 701.084 65.8359C701.46 66.2786 701.648 66.9206 701.648 67.7617C701.648 68.5807 701.305 69.4772 700.619 70.4512C699.933 71.403 699.048 72.2552 697.963 73.0078C695.528 74.6901 693.016 75.5312 690.426 75.5312C688.257 75.5312 686.718 74.9115 685.811 73.6719C685.301 73.0078 685.047 72.4102 685.047 71.8789ZM737.242 61.0547C736.932 61.099 736.678 61.11 736.479 61.0879C736.279 61.0658 736.091 61.0104 735.914 60.9219C735.493 60.7448 735.283 60.4681 735.283 60.0918C735.283 59.6934 735.35 59.3392 735.482 59.0293L743.451 41.2656L745.477 37.082C746.893 34.2708 747.801 32.6107 748.199 32.1016C748.62 31.5924 748.941 31.2161 749.162 30.9727C749.406 30.7292 749.682 30.5078 749.992 30.3086C750.701 29.888 751.431 29.6777 752.184 29.6777C752.936 29.6777 753.777 29.7773 754.707 29.9766C755.637 30.1536 756.544 30.3971 757.43 30.707C759.555 31.5039 760.617 32.3451 760.617 33.2305C760.617 34.6914 759.023 38.3548 755.836 44.2207C752.493 50.3079 749.616 54.4362 747.203 56.6055C744.569 58.974 741.249 60.457 737.242 61.0547ZM730.203 71.8789C730.203 71.3255 730.281 70.8496 730.436 70.4512C730.59 70.0527 730.834 69.599 731.166 69.0898C731.52 68.5586 731.963 68.0052 732.494 67.4297C733.048 66.832 733.723 66.3008 734.52 65.8359C736.357 64.707 738.438 64.1426 740.762 64.1426C743.418 64.1426 745.244 64.707 746.24 65.8359C746.617 66.2786 746.805 66.9206 746.805 67.7617C746.805 68.5807 746.462 69.4772 745.775 70.4512C745.089 71.403 744.204 72.2552 743.119 73.0078C740.684 74.6901 738.172 75.5312 735.582 75.5312C733.413 75.5312 731.874 74.9115 730.967 73.6719C730.458 73.0078 730.203 72.4102 730.203 71.8789Z" fill="#3F3D56"/>
<path d="M0 0C7.34855 2.4903 14.6971 5.00153 22.0456 7.51276C22.0269 27.7072 22.0644 47.9017 22.0268 68.0962C14.885 75.1276 7.79961 82.2219 0.676593 89.2742C18.0801 79.1038 35.4647 68.8914 52.8494 58.7C48.0381 56.2516 43.1892 53.845 38.3778 51.3965C35.1264 43.5071 31.8374 35.6385 28.586 27.77C44.7303 33.2529 60.8558 38.7567 77 44.2604C77 53.0497 77 61.8181 77 70.6074C58.638 82.7869 40.2761 94.9664 21.9141 107.146C14.6031 101.454 7.31096 95.7407 0 90.0485C0 60.0393 0 30.0092 0 0Z" fill="#FB0088"/>
</svg>
